ISO-10303-21;
HEADER;
FILE_DESCRIPTION (( 'STEP AP203' ),
    '1' );
FILE_NAME ('EN02-PALM_TOP_CAP.STEP',
    '2025-11-16T04:22:57',
    ( '' ),
    ( '' ),
    'SwSTEP 2.0',
    'SolidWorks 2024',
    '' );
FILE_SCHEMA (( 'CONFIG_CONTROL_DESIGN' ));
ENDSEC;

DATA;
#1 = ORIENTED_EDGE ( 'NONE', *, *, #76, .F. ) ;
#2 = DIRECTION ( 'NONE',  ( 1.000000000000000000, -0.000000000000000000, -0.000000000000000000 ) ) ;
#3 = ADVANCED_FACE ( 'NONE', ( #598 ), #282, .T. ) ;
#4 = CARTESIAN_POINT ( 'NONE',  ( -20.53200000000000003, 3.073593128807151853, 2.500000000000000444 ) ) ;
#5 = LINE ( 'NONE', #727, #989 ) ;
#6 = VERTEX_POINT ( 'NONE', #369 ) ;
#7 = CYLINDRICAL_SURFACE ( 'NONE', #328, 1.500000000000000444 ) ;
#8 = PLANE ( 'NONE',  #690 ) ;
#9 = CARTESIAN_POINT ( 'NONE',  ( -19.07115858279928489, 4.735558864881523000, 4.392407627999769915 ) ) ;
#10 = ORIENTED_EDGE ( 'NONE', *, *, #402, .T. ) ;
#11 = DIRECTION ( 'NONE',  ( 1.000000000000000000, 0.000000000000000000, -0.000000000000000000 ) ) ;
#12 = DIRECTION ( 'NONE',  ( 0.000000000000000000, 0.000000000000000000, -1.000000000000000000 ) ) ;
#13 = VECTOR ( 'NONE', #330, 1000.000000000000000 ) ;
#14 = CARTESIAN_POINT ( 'NONE',  ( -27.42745187363759385, 3.184831051070015295, -3.960069801589582106 ) ) ;
#15 = EDGE_LOOP ( 'NONE', ( #505, #1028, #790, #175 ) ) ;
#16 = CARTESIAN_POINT ( 'NONE',  ( -30.03200000000000358, 0.000000000000000000, -4.000000000000000000 ) ) ;
#17 = EDGE_CURVE ( 'NONE', #88, #257, #500, .T. ) ;
#18 = FACE_OUTER_BOUND ( 'NONE', #969, .T. ) ;
#19 = DIRECTION ( 'NONE',  ( 0.000000000000000000, 0.000000000000000000, 1.000000000000000000 ) ) ;
#20 = ORIENTED_EDGE ( 'NONE', *, *, #337, .F. ) ;
#21 = CARTESIAN_POINT ( 'NONE',  ( -22.03200000000000358, 0.000000000000000000, 2.500000000000000444 ) ) ;
#22 = CARTESIAN_POINT ( 'NONE',  ( -29.45561420988313728, 4.830598395290299329, -5.198004431195801800 ) ) ;
#23 = CARTESIAN_POINT ( 'NONE',  ( -19.77874574974935129, 4.844079488888772822, 5.300864373468293422 ) ) ;
#24 = ORIENTED_EDGE ( 'NONE', *, *, #983, .F. ) ;
#25 = CARTESIAN_POINT ( 'NONE',  ( -27.03200000000000003, 3.188654003919948021, -4.000000000000000000 ) ) ;
#26 = CYLINDRICAL_SURFACE ( 'NONE', #956, 1.500000000000000444 ) ;
#27 = CARTESIAN_POINT ( 'NONE',  ( -21.28037428448138257, 3.170348957958188052, -3.801792895318246490 ) ) ;
#28 = AXIS2_PLACEMENT_3D ( 'NONE', #868, #56, #221 ) ;
#29 = DIRECTION ( 'NONE',  ( 0.000000000000000000, 0.000000000000000000, -1.000000000000000000 ) ) ;
#30 = DIRECTION ( 'NONE',  ( 0.000000000000000000, -1.000000000000000000, 0.000000000000000000 ) ) ;
#31 = CIRCLE ( 'NONE', #863, 1.199999999999999734 ) ;
#32 = CARTESIAN_POINT ( 'NONE',  ( -28.53200000000000358, 0.000000000000000000, -4.000000000000000000 ) ) ;
#33 = EDGE_CURVE ( 'NONE', #996, #193, #353, .T. ) ;
#34 = ADVANCED_FACE ( 'NONE', ( #865 ), #198, .F. ) ;
#35 = DIRECTION ( 'NONE',  ( 0.000000000000000000, -1.000000000000000000, -0.000000000000000000 ) ) ;
#36 = VERTEX_POINT ( 'NONE', #438 ) ;
#37 = CALENDAR_DATE ( 2025, 16, 11 ) ;
#38 = EDGE_CURVE ( 'NONE', #459, #400, #767, .T. ) ;
#39 = VERTEX_POINT ( 'NONE', #880 ) ;
#40 = DIRECTION ( 'NONE',  ( 1.000000000000000000, 0.000000000000000000, 0.000000000000000000 ) ) ;
#41 = EDGE_CURVE ( 'NONE', #630, #611, #308, .T. ) ;
#42 = FACE_OUTER_BOUND ( 'NONE', #606, .T. ) ;
#43 = CARTESIAN_POINT ( 'NONE',  ( -51.83200000000000074, 4.870577163833599954, 5.500000000000000000 ) ) ;
#44 = DIRECTION ( 'NONE',  ( -0.000000000000000000, 0.000000000000000000, -1.000000000000000000 ) ) ;
#45 = CARTESIAN_POINT ( 'NONE',  ( -19.18308188132504455, 4.765966791443494444, -4.663352525825565920 ) ) ;
#46 = CARTESIAN_POINT ( 'NONE',  ( -24.53200000000000358, 4.606265761121791869, -2.949999999999999734 ) ) ;
#47 = EDGE_LOOP ( 'NONE', ( #870, #697, #99, #171 ) ) ;
#48 = AXIS2_PLACEMENT_3D ( 'NONE', #397, #239, #891 ) ;
#49 = ORIENTED_EDGE ( 'NONE', *, *, #76, .T. ) ;
#50 = CARTESIAN_POINT ( 'NONE',  ( -29.73200000000000287, 0.000000000000000000, -4.000000000000000000 ) ) ;
#51 = ORIENTED_EDGE ( 'NONE', *, *, #480, .F. ) ;
#52 = CC_DESIGN_PERSON_AND_ORGANIZATION_ASSIGNMENT ( #599, #365, ( #916 ) ) ;
#53 = DIRECTION ( 'NONE',  ( 1.000000000000000000, 0.000000000000000000, -0.000000000000000000 ) ) ;
#54 = ORIENTED_EDGE ( 'NONE', *, *, #572, .F. ) ;
#55 = CARTESIAN_POINT ( 'NONE',  ( -20.33404129341923294, 4.869236485520761271, -5.490121527358893694 ) ) ;
#56 = DIRECTION ( 'NONE',  ( 0.000000000000000000, 1.000000000000000000, -0.000000000000000000 ) ) ;
#57 = CALENDAR_DATE ( 2025, 16, 11 ) ;
#58 = CARTESIAN_POINT ( 'NONE',  ( -19.07995928520529105, 4.735457589068719386, -4.388780191093319516 ) ) ;
#59 = EDGE_CURVE ( 'NONE', #739, #6, #458, .T. ) ;
#60 = CARTESIAN_POINT ( 'NONE',  ( -20.83810866643510806, 3.137212891389726366, 3.413347816151023117 ) ) ;
#61 = ORIENTED_EDGE ( 'NONE', *, *, #343, .F. ) ;
#62 = CARTESIAN_POINT ( 'NONE',  ( -20.53200000000000003, 0.000000000000000000, -4.000000000000000000 ) ) ;
#63 = VECTOR ( 'NONE', #464, 1000.000000000000000 ) ;
#64 = CARTESIAN_POINT ( 'NONE',  ( -23.93130152566214619, 4.536884455764411683, -1.740139456215506142 ) ) ;
#65 = VECTOR ( 'NONE', #338, 1000.000000000000000 ) ;
#66 = DIRECTION ( 'NONE',  ( -1.000000000000000000, 0.000000000000000000, 0.000000000000000000 ) ) ;
#67 = VERTEX_POINT ( 'NONE', #154 ) ;
#68 = LINE ( 'NONE', #1050, #197 ) ;
#69 = CARTESIAN_POINT ( 'NONE',  ( -24.53200000000000003, 0.000000000000000000, -4.000000000000000000 ) ) ;
#70 = DIRECTION ( 'NONE',  ( -0.000000000000000000, 1.000000000000000000, -0.000000000000000000 ) ) ;
#71 = EDGE_LOOP ( 'NONE', ( #452, #1036, #226, #920 ) ) ;
#72 = CARTESIAN_POINT ( 'NONE',  ( -29.73200000000000287, 0.000000000000000000, -4.000000000000000000 ) ) ;
#73 = CARTESIAN_POINT ( 'NONE',  ( -27.03200000000000003, 0.000000000000000000, -2.500000000000000000 ) ) ;
#74 = EDGE_CURVE ( 'NONE', #514, #782, #389, .T. ) ;
#75 = CARTESIAN_POINT ( 'NONE',  ( -29.73200000000000287, 0.000000000000000000, 4.000000000000000000 ) ) ;
#76 = EDGE_CURVE ( 'NONE', #6, #237, #641, .T. ) ;
#77 = ORIENTED_EDGE ( 'NONE', *, *, #572, .T. ) ;
#78 = CARTESIAN_POINT ( 'NONE',  ( -28.53200000000000358, 0.000000000000000000, -4.000000000000000000 ) ) ;
#79 = CARTESIAN_POINT ( 'NONE',  ( -28.53200000000000358, 4.870577163833599954, 5.500000000000000888 ) ) ;
#80 = AXIS2_PLACEMENT_3D ( 'NONE', #835, #758, #339 ) ;
#81 = AXIS2_PLACEMENT_3D ( 'NONE', #506, #834, #342 ) ;
#82 = CARTESIAN_POINT ( 'NONE',  ( -25.26265334106305716, 4.569953821006441430, -2.395748181374194097 ) ) ;
#83 = APPROVAL ( #121, 'UNSPECIFIED' ) ;
#84 = ORIENTED_EDGE ( 'NONE', *, *, #217, .F. ) ;
#85 = CARTESIAN_POINT ( 'NONE',  ( -30.03200000000000358, 4.200000000000172484, -4.000000000000000000 ) ) ;
#86 = CARTESIAN_POINT ( 'NONE',  ( -23.93131829747548878, 3.035580675825245045, -1.740118031562257750 ) ) ;
#87 = CARTESIAN_POINT ( 'NONE',  ( -25.18718408725384705, 4.540403857446836611, -1.822012127509479607 ) ) ;
#88 = VERTEX_POINT ( 'NONE', #139 ) ;
#89 = DIRECTION ( 'NONE',  ( -1.000000000000000000, 0.000000000000000000, 0.000000000000000000 ) ) ;
#90 = CARTESIAN_POINT ( 'NONE',  ( -23.87633987093121135, 3.039011027130115394, -1.822821585175784298 ) ) ;
#91 = EDGE_CURVE ( 'NONE', #265, #1034, #143, .T. ) ;
#92 = CARTESIAN_POINT ( 'NONE',  ( -24.92454458094013958, 4.600223665211768953, -2.868375052011386650 ) ) ;
#93 = ORIENTED_EDGE ( 'NONE', *, *, #190, .F. ) ;
#94 = DIRECTION ( 'NONE',  ( 1.000000000000000000, -0.000000000000000000, -0.000000000000000000 ) ) ;
#95 = CYLINDRICAL_SURFACE ( 'NONE', #465, 1.500000000000000000 ) ;
#96 = CARTESIAN_POINT ( 'NONE',  ( -25.18748461935215843, 4.580997727272348996, -2.577507045113961670 ) ) ;
#97 = ORGANIZATION ( 'UNSPECIFIED', 'UNSPECIFIED', '' ) ;
#98 = LOCAL_TIME ( 12, 22, 57.00000000000000000, #208 ) ;
#99 = ORIENTED_EDGE ( 'NONE', *, *, #430, .F. ) ;
#100 = PLANE ( 'NONE',  #779 ) ;
#101 = DIRECTION ( 'NONE',  ( 0.07124704998790711008, 0.9974586998307350960, 0.000000000000000000 ) ) ;
#102 = CARTESIAN_POINT ( 'NONE',  ( -20.14245145422336236, 4.864083433202408102, 5.451849158714773935 ) ) ;
#103 = EDGE_LOOP ( 'NONE', ( #655, #434, #874, #320, #820, #136, #561, #536 ) ) ;
#104 = LINE ( 'NONE', #579, #180 ) ;
#105 = FACE_OUTER_BOUND ( 'NONE', #482, .T. ) ;
#106 = CARTESIAN_POINT ( 'NONE',  ( -20.53200000000000003, 0.000000000000000000, -5.500000000000000000 ) ) ;
#107 = EDGE_CURVE ( 'NONE', #36, #693, #978, .T. ) ;
#108 = VERTEX_POINT ( 'NONE', #872 ) ;
#109 = FACE_OUTER_BOUND ( 'NONE', #1032, .T. ) ;
#110 = EDGE_CURVE ( 'NONE', #149, #6, #804, .T. ) ;
#111 = DIRECTION ( 'NONE',  ( -1.000000000000000000, 0.000000000000000000, 0.000000000000000000 ) ) ;
#112 = CARTESIAN_POINT ( 'NONE',  ( -21.36651322721573010, 3.174532392607720688, -3.847885492343642078 ) ) ;
#113 = CIRCLE ( 'NONE', #80, 1.500000000000000000 ) ;
#114 = VECTOR ( 'NONE', #267, 1000.000000000000000 ) ;
#115 = ORIENTED_EDGE ( 'NONE', *, *, #639, .F. ) ;
#116 = APPLICATION_PROTOCOL_DEFINITION ( 'international standard', 'config_control_design', 1994, #846 ) ;
#117 = ORIENTED_EDGE ( 'NONE', *, *, #689, .T. ) ;
#118 = CARTESIAN_POINT ( 'NONE',  ( -28.53200000000000358, 4.200000000000172484, -4.000000000000000000 ) ) ;
#119 = CARTESIAN_POINT ( 'NONE',  ( -23.86315572238934024, 4.581760081093355197, -2.591694961365130112 ) ) ;
#120 = CARTESIAN_POINT ( 'NONE',  ( -27.03200000000000003, 0.000000000000000000, 2.500000000000000000 ) ) ;
#121 = APPROVAL_STATUS ( 'not_yet_approved' ) ;
#122 = ORIENTED_EDGE ( 'NONE', *, *, #385, .F. ) ;
#123 = CARTESIAN_POINT ( 'NONE',  ( -25.13138507846490199, 3.035523701518664463, -1.738689857408669992 ) ) ;
#124 = CARTESIAN_POINT ( 'NONE',  ( -20.53200000000000003, 0.000000000000000000, 5.200000000000000178 ) ) ;
#125 = DIRECTION ( 'NONE',  ( 0.000000000000000000, 0.000000000000000000, -1.000000000000000000 ) ) ;
#126 = EDGE_CURVE ( 'NONE', #411, #265, #647, .T. ) ;
#127 = COORDINATED_UNIVERSAL_TIME_OFFSET ( 8, 0, .AHEAD. ) ;
#128 = ORIENTED_EDGE ( 'NONE', *, *, #831, .F. ) ;
#129 = CARTESIAN_POINT ( 'NONE',  ( -25.18748302973562048, 3.078133910372385262, -2.577511610502282835 ) ) ;
#130 = CC_DESIGN_DATE_AND_TIME_ASSIGNMENT ( #774, #949, ( #957 ) ) ;
#131 = ORIENTED_EDGE ( 'NONE', *, *, #528, .F. ) ;
#132 = VECTOR ( 'NONE', #967, 1000.000000000000000 ) ;
#133 = ORIENTED_EDGE ( 'NONE', *, *, #405, .T. ) ;
#134 = CARTESIAN_POINT ( 'NONE',  ( -19.22989025820501752, 4.776118818957921341, -4.751019249667261413 ) ) ;
#135 = VECTOR ( 'NONE', #718, 1000.000000000000000 ) ;
#136 = ORIENTED_EDGE ( 'NONE', *, *, #235, .T. ) ;
#137 = PERSON_AND_ORGANIZATION_ROLE ( 'classification_officer' ) ;
#138 = CARTESIAN_POINT ( 'NONE',  ( -19.03200000000000713, 4.705165228110921305, -4.097693456061535677 ) ) ;
#139 = CARTESIAN_POINT ( 'NONE',  ( -28.53200000000000358, 3.073593128807151853, -2.500000000000000000 ) ) ;
#140 = ORIENTED_EDGE ( 'NONE', *, *, #480, .T. ) ;
#141 = CARTESIAN_POINT ( 'NONE',  ( -25.28204911044783643, 3.062083446650265550, -2.298486028644313173 ) ) ;
#142 = CARTESIAN_POINT ( 'NONE',  ( -23.80130212796685996, 4.548926916641636176, -2.004464442278065306 ) ) ;
#143 = LINE ( 'NONE', #1044, #672 ) ;
#144 = EDGE_LOOP ( 'NONE', ( #939, #685, #1040, #155 ) ) ;
#145 = LINE ( 'NONE', #472, #706 ) ;
#146 = CIRCLE ( 'NONE', #28, 1.500000000000000000 ) ;
#147 = DIRECTION ( 'NONE',  ( 0.000000000000000000, 0.000000000000000000, -1.000000000000000000 ) ) ;
#148 = DIRECTION ( 'NONE',  ( 0.000000000000000000, 0.000000000000000000, 1.000000000000000000 ) ) ;
#149 = VERTEX_POINT ( 'NONE', #236 ) ;
#150 = CARTESIAN_POINT ( 'NONE',  ( -20.53200000000000003, 0.000000000000000000, -2.500000000000000000 ) ) ;
#151 = DIRECTION ( 'NONE',  ( 0.000000000000000000, 0.000000000000000000, -1.000000000000000000 ) ) ;
#152 = ADVANCED_FACE ( 'NONE', ( #620 ), #888, .F. ) ;
#153 = EDGE_CURVE ( 'NONE', #36, #649, #454, .T. ) ;
#154 = CARTESIAN_POINT ( 'NONE',  ( -27.03200000000000003, 3.188654003919942692, 4.000000000000000000 ) ) ;
#155 = ORIENTED_EDGE ( 'NONE', *, *, #558, .F. ) ;
#156 = PLANE ( 'NONE',  #517 ) ;
#157 = CARTESIAN_POINT ( 'NONE',  ( -19.03200000000000003, 4.200000000000172484, -4.000000000000000000 ) ) ;
#158 = ADVANCED_FACE ( 'NONE', ( #799 ), #362, .T. ) ;
#159 = CARTESIAN_POINT ( 'NONE',  ( -28.48428385201418678, 3.098116211226320971, -2.887811617685998922 ) ) ;
#160 = ORIENTED_EDGE ( 'NONE', *, *, #462, .F. ) ;
#161 = PLANE ( 'NONE',  #567 ) ;
#162 = CARTESIAN_POINT ( 'NONE',  ( -23.78193738293360227, 3.051935099952177488, -2.102705878189342847 ) ) ;
#163 = VECTOR ( 'NONE', #633, 1000.000000000000000 ) ;
#164 = SECURITY_CLASSIFICATION ( '', '', #451 ) ;
#165 = CARTESIAN_POINT ( 'NONE',  ( -25.13196942497953046, 4.586356325430868353, -2.660560314870829224 ) ) ;
#166 = ORIENTED_EDGE ( 'NONE', *, *, #292, .T. ) ;
#167 = DIRECTION ( 'NONE',  ( 0.000000000000000000, -0.9974586998307350960, 0.07124704998790711008 ) ) ;
#168 = EDGE_CURVE ( 'NONE', #838, #712, #146, .T. ) ;
#169 = LINE ( 'NONE', #803, #877 ) ;
#170 = CARTESIAN_POINT ( 'NONE',  ( -29.72658748747922530, 4.795272686311234267, 4.912421811515072179 ) ) ;
#171 = ORIENTED_EDGE ( 'NONE', *, *, #618, .F. ) ;
#172 = CARTESIAN_POINT ( 'NONE',  ( -22.03200000000000358, 3.188654003919948021, -4.000000000000000000 ) ) ;
#173 = CARTESIAN_POINT ( 'NONE',  ( -19.33200000000000074, 0.000000000000000000, 4.000000000000000000 ) ) ;
#174 = CARTESIAN_POINT ( 'NONE',  ( -29.88075669374644860, 4.766005422554634663, 4.663691085905026235 ) ) ;
#175 = ORIENTED_EDGE ( 'NONE', *, *, #402, .F. ) ;
#176 = CARTESIAN_POINT ( 'NONE',  ( -28.53200000000000358, 0.000000000000000000, -5.000000000000000000 ) ) ;
#177 = CARTESIAN_POINT ( 'NONE',  ( -20.53200000000000003, 4.200000000000172484, 5.500000000000000000 ) ) ;
#178 = AXIS2_PLACEMENT_3D ( 'NONE', #818, #887, #147 ) ;
#179 = CARTESIAN_POINT ( 'NONE',  ( -24.53199999999955594, 4.525648266262820130, -1.449999999996023359 ) ) ;
#180 = VECTOR ( 'NONE', #94, 1000.000000000000000 ) ;
#181 = EDGE_LOOP ( 'NONE', ( #934, #1016, #324, #450 ) ) ;
#182 = CYLINDRICAL_SURFACE ( 'NONE', #81, 1.500000000000000000 ) ;
#183 = CARTESIAN_POINT ( 'NONE',  ( -20.53200000000000003, 4.200000000000172484, -4.000000000000000000 ) ) ;
#184 = EDGE_CURVE ( 'NONE', #498, #912, #544, .T. ) ;
#185 = CARTESIAN_POINT ( 'NONE',  ( -20.72131169435203191, 3.124452400329521318, -3.255089837559082877 ) ) ;
#186 = ORIENTED_EDGE ( 'NONE', *, *, #383, .F. ) ;
#187 = CARTESIAN_POINT ( 'NONE',  ( -27.51583921090732332, 3.181449202377591767, 3.923224354488734633 ) ) ;
#188 = CARTESIAN_POINT ( 'NONE',  ( -28.53200000000000358, 4.200000000000172484, 5.500000000000000000 ) ) ;
#189 = CARTESIAN_POINT ( 'NONE',  ( -21.64347659991232931, 3.184149282594338715, -3.952106424521305783 ) ) ;
#190 = EDGE_CURVE ( 'NONE', #739, #207, #795, .T. ) ;
#191 = ORIENTED_EDGE ( 'NONE', *, *, #462, .T. ) ;
#192 = PERSON_AND_ORGANIZATION ( #953, #97 ) ;
#193 = VERTEX_POINT ( 'NONE', #231 ) ;
#194 = CARTESIAN_POINT ( 'NONE',  ( -30.03200000000000358, 4.695588473793673501, -4.000000000000000000 ) ) ;
#195 = CARTESIAN_POINT ( 'NONE',  ( -24.07057968498606826, 4.595614797938992524, -2.799300171454407682 ) ) ;
#196 = CIRCLE ( 'NONE', #778, 1.500000000000000444 ) ;
#197 = VECTOR ( 'NONE', #167, 1000.000000000000114 ) ;
#198 = CYLINDRICAL_SURFACE ( 'NONE', #262, 1.500000000000000000 ) ;
#199 = DIRECTION ( 'NONE',  ( 0.000000000000000000, -0.07124704998790733212, 0.9974586998307352070 ) ) ;
#200 = EDGE_CURVE ( 'NONE', #88, #996, #852, .T. ) ;
#201 = EDGE_CURVE ( 'NONE', #39, #287, #278, .T. ) ;
#202 = CARTESIAN_POINT ( 'NONE',  ( -21.04025371300859248, 3.155214943755729085, -3.629599403756919695 ) ) ;
#203 = VERTEX_POINT ( 'NONE', #487 ) ;
#204 = VERTEX_POINT ( 'NONE', #587 ) ;
#205 = CARTESIAN_POINT ( 'NONE',  ( -24.53199999999999648, 3.102505970281686842, -2.949999999999999734 ) ) ;
#206 = CARTESIAN_POINT ( 'NONE',  ( -24.15377908769383808, 4.599511329540075799, -2.855075118576816617 ) ) ;
#207 = VERTEX_POINT ( 'NONE', #479 ) ;
#208 = COORDINATED_UNIVERSAL_TIME_OFFSET ( 8, 0, .AHEAD. ) ;
#209 = ORIENTED_EDGE ( 'NONE', *, *, #241, .T. ) ;
#210 = CARTESIAN_POINT ( 'NONE',  ( -24.53200000000000003, 81.49999999999998579, -2.199999999999997957 ) ) ;
#211 = ORIENTED_EDGE ( 'NONE', *, *, #787, .F. ) ;
#212 = COORDINATED_UNIVERSAL_TIME_OFFSET ( 8, 0, .AHEAD. ) ;
#213 = AXIS2_PLACEMENT_3D ( 'NONE', #1057, #66, #1048 ) ;
#214 = VERTEX_POINT ( 'NONE', #504 ) ;
#215 = CARTESIAN_POINT ( 'NONE',  ( -24.92452973932765659, 3.096678918644663714, -2.868385534374966905 ) ) ;
#216 = LOCAL_TIME ( 12, 22, 57.00000000000000000, #127 ) ;
#217 = EDGE_CURVE ( 'NONE', #287, #625, #240, .T. ) ;
#218 = CARTESIAN_POINT ( 'NONE',  ( -28.53200000000000358, 4.200000000000172484, -4.000000000000000000 ) ) ;
#219 = EDGE_LOOP ( 'NONE', ( #160, #222, #660, #61 ) ) ;
#220 = DIRECTION ( 'NONE',  ( 1.000000000000000000, -0.000000000000000000, -0.000000000000000000 ) ) ;
#221 = DIRECTION ( 'NONE',  ( 0.000000000000000000, 0.000000000000000000, -1.000000000000000000 ) ) ;
#222 = ORIENTED_EDGE ( 'NONE', *, *, #91, .F. ) ;
#223 = CARTESIAN_POINT ( 'NONE',  ( -20.53200000000000003, 3.073593128807151853, -2.500000000000000000 ) ) ;
#224 = DIRECTION ( 'NONE',  ( -1.000000000000000000, 0.000000000000000000, -0.000000000000000000 ) ) ;
#225 = DIRECTION ( 'NONE',  ( -0.07124704998790711008, -0.9974586998307350960, 0.000000000000000000 ) ) ;
#226 = ORIENTED_EDGE ( 'NONE', *, *, #268, .F. ) ;
#227 = FACE_OUTER_BOUND ( 'NONE', #545, .T. ) ;
#228 = VECTOR ( 'NONE', #473, 1000.000000000000000 ) ;
#229 = CARTESIAN_POINT ( 'NONE',  ( -24.53199999999999648, 3.102505970281686842, -2.949999999999999734 ) ) ;
#230 = LOCAL_TIME ( 12, 22, 57.00000000000000000, #686 ) ;
#231 = CARTESIAN_POINT ( 'NONE',  ( -27.03200000000000003, 0.000000000000000000, -4.000000000000000000 ) ) ;
#232 = ORIENTED_EDGE ( 'NONE', *, *, #823, .F. ) ;
#233 = CARTESIAN_POINT ( 'NONE',  ( -28.53200000000000358, 0.000000000000000000, 5.500000000000000000 ) ) ;
#234 = CARTESIAN_POINT ( 'NONE',  ( -24.07059248895162185, 3.092233382022561372, -2.799310506923700981 ) ) ;
#235 = EDGE_CURVE ( 'NONE', #649, #456, #5, .T. ) ;
#236 = CARTESIAN_POINT ( 'NONE',  ( -29.73200000000000287, 0.000000000000000000, 4.000000000000000000 ) ) ;
#237 = VERTEX_POINT ( 'NONE', #319 ) ;
#238 = DIRECTION ( 'NONE',  ( 0.000000000000000000, 0.000000000000000000, -1.000000000000000000 ) ) ;
#239 = DIRECTION ( 'NONE',  ( 0.000000000000000000, 1.000000000000000000, -0.000000000000000000 ) ) ;
#240 = LINE ( 'NONE', #648, #13 ) ;
#241 = EDGE_CURVE ( 'NONE', #400, #782, #800, .T. ) ;
#242 = ORIENTED_EDGE ( 'NONE', *, *, #813, .T. ) ;
#243 = LINE ( 'NONE', #150, #635 ) ;
#244 = DIRECTION ( 'NONE',  ( -1.000000000000000000, 0.000000000000000000, -0.000000000000000000 ) ) ;
#245 = AXIS2_PLACEMENT_3D ( 'NONE', #218, #70, #784 ) ;
#246 = AXIS2_PLACEMENT_3D ( 'NONE', #806, #301, #395 ) ;
#247 = CARTESIAN_POINT ( 'NONE',  ( -30.03200000000000358, 4.714957627550595554, 4.197586730202923277 ) ) ;
#248 = EDGE_LOOP ( 'NONE', ( #372, #128, #475, #703 ) ) ;
#249 = DIRECTION ( 'NONE',  ( 0.000000000000000000, 0.000000000000000000, 1.000000000000000000 ) ) ;
#250 = DIRECTION ( 'NONE',  ( -0.000000000000000000, 1.000000000000000000, -0.000000000000000000 ) ) ;
#251 = CARTESIAN_POINT ( 'NONE',  ( -28.73075152182997272, 4.870577163833599954, 5.500000000000000000 ) ) ;
#252 = EDGE_CURVE ( 'NONE', #237, #459, #466, .T. ) ;
#253 = EDGE_LOOP ( 'NONE', ( #948, #582 ) ) ;
#254 = LINE ( 'NONE', #735, #65 ) ;
#255 = DIRECTION ( 'NONE',  ( 0.000000000000000000, 0.000000000000000000, 1.000000000000000000 ) ) ;
#256 = CARTESIAN_POINT ( 'NONE',  ( -28.53200000000000358, 3.079427218253759868, -2.599007781033881415 ) ) ;
#257 = VERTEX_POINT ( 'NONE', #382 ) ;
#258 = CARTESIAN_POINT ( 'NONE',  ( -28.53200000000000358, 3.073593128807151853, 2.500000000000000000 ) ) ;
#259 = EDGE_CURVE ( 'NONE', #942, #498, #924, .T. ) ;
#260 = CARTESIAN_POINT ( 'NONE',  ( -28.53200000000000358, 0.000000000000000000, 4.000000000000000000 ) ) ;
#261 = ADVANCED_FACE ( 'NONE', ( #1047, #1027 ), #710, .T. ) ;
#262 = AXIS2_PLACEMENT_3D ( 'NONE', #120, #848, #29 ) ;
#263 = VECTOR ( 'NONE', #518, 1000.000000000000114 ) ;
#264 = CARTESIAN_POINT ( 'NONE',  ( -24.73032618199692223, 4.606265761121796309, -2.950000000000000622 ) ) ;
#265 = VERTEX_POINT ( 'NONE', #302 ) ;
#266 = PLANE ( 'NONE',  #602 ) ;
#267 = DIRECTION ( 'NONE',  ( -0.000000000000000000, -1.000000000000000000, -0.000000000000000000 ) ) ;
#268 = EDGE_CURVE ( 'NONE', #509, #630, #597, .T. ) ;
#269 = DIRECTION ( 'NONE',  ( -0.000000000000000000, -1.000000000000000000, -0.000000000000000000 ) ) ;
#270 = EDGE_LOOP ( 'NONE', ( #885, #209, #10, #444, #614, #471, #636, #775 ) ) ;
#271 = FACE_OUTER_BOUND ( 'NONE', #622, .T. ) ;
#272 = FACE_OUTER_BOUND ( 'NONE', #578, .T. ) ;
#273 = CARTESIAN_POINT ( 'NONE',  ( -20.53200000000000003, 4.200000000000172484, 4.000000000000000000 ) ) ;
#274 = EDGE_LOOP ( 'NONE', ( #24, #699, #811, #595 ) ) ;
#275 = PERSON_AND_ORGANIZATION ( #953, #97 ) ;
#276 = EDGE_CURVE ( 'NONE', #1024, #749, #577, .T. ) ;
#277 = EDGE_CURVE ( 'NONE', #207, #237, #654, .T. ) ;
#278 = B_SPLINE_CURVE_WITH_KNOTS ( 'NONE', 3,
 ( #179, #743, #492, #747, #87, #1003, #496, #404, #82, #96, #165, #92, #264, #663 ),
 .UNSPECIFIED., .F., .F.,
 ( 4, 2, 2, 2, 2, 2, 4 ),
 ( 0.002346614024897219174, 0.002933137226708102101, 0.003226398827613539879, 0.003519660428518976789, 0.003812922029424414133, 0.004106183630329851043, 0.004692706832140726599 ),
 .UNSPECIFIED. ) ;
#279 = CARTESIAN_POINT ( 'NONE',  ( -19.77451676227868305, 4.845187857625065320, -5.309620674015549824 ) ) ;
#280 = DIRECTION ( 'NONE',  ( 0.000000000000000000, 0.000000000000000000, -1.000000000000000000 ) ) ;
#281 = CONICAL_SURFACE ( 'NONE', #892, 1.500000000000000444, 0.07130746478528779408 ) ;
#282 = PLANE ( 'NONE',  #776 ) ;
#283 = PERSON_AND_ORGANIZATION_ROLE ( 'design_supplier' ) ;
#284 = FACE_BOUND ( 'NONE', #985, .T. ) ;
#285 = CARTESIAN_POINT ( 'NONE',  ( -28.53200000000000358, 0.000000000000000000, 5.199999999999997513 ) ) ;
#286 = ORIENTED_EDGE ( 'NONE', *, *, #351, .T. ) ;
#287 = VERTEX_POINT ( 'NONE', #508 ) ;
#288 = CARTESIAN_POINT ( 'NONE',  ( -51.83200000000000074, 45.50000000000000711, 0.000000000000000000 ) ) ;
#289 = DIRECTION ( 'NONE',  ( -1.000000000000000000, -0.000000000000000000, 0.000000000000000000 ) ) ;
#290 = PERSON_AND_ORGANIZATION ( #953, #97 ) ;
#291 = CARTESIAN_POINT ( 'NONE',  ( -24.73031548385777967, 3.102505970281687286, -2.949999999999999734 ) ) ;
#292 = EDGE_CURVE ( 'NONE', #287, #39, #772, .T. ) ;
#293 = EDGE_CURVE ( 'NONE', #257, #203, #762, .T. ) ;
#294 = DIRECTION ( 'NONE',  ( 1.000000000000000000, 0.000000000000000000, 0.000000000000000000 ) ) ;
#295 = VECTOR ( 'NONE', #101, 1000.000000000000114 ) ;
#296 = AXIS2_PLACEMENT_3D ( 'NONE', #233, #890, #381 ) ;
#297 = EDGE_LOOP ( 'NONE', ( #51, #367, #889, #309 ) ) ;
#298 = LINE ( 'NONE', #539, #991 ) ;
#299 = CARTESIAN_POINT ( 'NONE',  ( -21.63654812636241331, 3.184831051070015295, 3.960069801589584770 ) ) ;
#300 = ORIENTED_EDGE ( 'NONE', *, *, #371, .T. ) ;
#301 = DIRECTION ( 'NONE',  ( 1.000000000000000000, -0.000000000000000000, -0.000000000000000000 ) ) ;
#302 = CARTESIAN_POINT ( 'NONE',  ( -22.03200000000000358, 3.188654003919942692, 4.000000000000000000 ) ) ;
#303 = CARTESIAN_POINT ( 'NONE',  ( -51.83200000000000074, 4.870577163833599954, -5.500000000000000000 ) ) ;
#304 = ORIENTED_EDGE ( 'NONE', *, *, #731, .F. ) ;
#305 = FACE_OUTER_BOUND ( 'NONE', #744, .T. ) ;
#306 = DIRECTION ( 'NONE',  ( 0.000000000000000000, -0.9974586998307350960, 0.07124704998790691579 ) ) ;
#307 = EDGE_CURVE ( 'NONE', #611, #514, #196, .T. ) ;
#308 = LINE ( 'NONE', #721, #720 ) ;
#309 = ORIENTED_EDGE ( 'NONE', *, *, #653, .F. ) ;
#310 = DIRECTION ( 'NONE',  ( 0.000000000000000000, 0.000000000000000000, 1.000000000000000000 ) ) ;
#311 = CIRCLE ( 'NONE', #327, 41.00000000000000000 ) ;
#312 = DIRECTION ( 'NONE',  ( 0.000000000000000000, 0.000000000000000000, -1.000000000000000000 ) ) ;
#313 = AXIS2_PLACEMENT_3D ( 'NONE', #683, #199, #867 ) ;
#314 = CC_DESIGN_APPROVAL ( #837, ( #916 ) ) ;
#315 = CARTESIAN_POINT ( 'NONE',  ( -22.03200000000000358, 3.188654003919942692, 4.000000000000000000 ) ) ;
#316 = ORIENTED_EDGE ( 'NONE', *, *, #823, .T. ) ;
#317 = CARTESIAN_POINT ( 'NONE',  ( -28.53200000000000358, 0.000000000000000000, -5.500000000000000888 ) ) ;
#318 = CARTESIAN_POINT ( 'NONE',  ( -20.53200000000000003, 4.870577163833599954, 5.500000000000000000 ) ) ;
#319 = CARTESIAN_POINT ( 'NONE',  ( -30.03200000000000358, 4.695588473793671724, 4.000000000000000000 ) ) ;
#320 = ORIENTED_EDGE ( 'NONE', *, *, #787, .T. ) ;
#321 = LINE ( 'NONE', #637, #619 ) ;
#322 = CARTESIAN_POINT ( 'NONE',  ( -24.15389721043247917, 3.028069458715573425, -1.544842632077286781 ) ) ;
#323 = CARTESIAN_POINT ( 'NONE',  ( -19.03200000000000358, 4.714748496720965854, 4.195453365094161668 ) ) ;
#324 = ORIENTED_EDGE ( 'NONE', *, *, #575, .T. ) ;
#325 = CARTESIAN_POINT ( 'NONE',  ( -27.03200000000000003, 3.188654003919942692, 4.000000000000000000 ) ) ;
#326 = CARTESIAN_POINT ( 'NONE',  ( -24.53200000000000003, 81.49999999999998579, -1.449999999999995959 ) ) ;
#327 = AXIS2_PLACEMENT_3D ( 'NONE', #485, #798, #1051 ) ;
#328 = AXIS2_PLACEMENT_3D ( 'NONE', #546, #562, #310 ) ;
#329 = ADVANCED_FACE ( 'NONE', ( #42 ), #1020, .F. ) ;
#330 = DIRECTION ( 'NONE',  ( -0.000000000000000000, -1.000000000000000000, -0.000000000000000000 ) ) ;
#331 = EDGE_LOOP ( 'NONE', ( #93, #805, #49, #896 ) ) ;
#332 = CARTESIAN_POINT ( 'NONE',  ( -28.49223633127977351, 3.098308325350211945, 2.894682599259111644 ) ) ;
#333 = CARTESIAN_POINT ( 'NONE',  ( -30.02231847399755793, 4.715178217217472323, -4.196137804690986961 ) ) ;
#334 = CARTESIAN_POINT ( 'NONE',  ( -27.95544940791666733, 3.160972687548123439, -3.698115006886197875 ) ) ;
#335 = EDGE_CURVE ( 'NONE', #739, #734, #603, .T. ) ;
#336 = VERTEX_POINT ( 'NONE', #124 ) ;
#337 = EDGE_CURVE ( 'NONE', #942, #717, #771, .T. ) ;
#338 = DIRECTION ( 'NONE',  ( -0.000000000000000000, 1.000000000000000000, -0.000000000000000000 ) ) ;
#339 = DIRECTION ( 'NONE',  ( 0.000000000000000000, 0.000000000000000000, -1.000000000000000000 ) ) ;
#340 = CARTESIAN_POINT ( 'NONE',  ( -28.52229380508368450, 3.085510274513954876, -2.696343098077283340 ) ) ;
#341 = ORIENTED_EDGE ( 'NONE', *, *, #200, .T. ) ;
#342 = DIRECTION ( 'NONE',  ( 0.000000000000000000, 0.000000000000000000, -1.000000000000000000 ) ) ;
#343 = EDGE_CURVE ( 'NONE', #380, #411, #645, .T. ) ;
#344 = CARTESIAN_POINT ( 'NONE',  ( -28.92645961493608908, 4.865165428427348893, -5.460399509431814735 ) ) ;
#345 = AXIS2_PLACEMENT_3D ( 'NONE', #530, #289, #125 ) ;
#346 = AXIS2_PLACEMENT_3D ( 'NONE', #361, #856, #608 ) ;
#347 = CARTESIAN_POINT ( 'NONE',  ( -24.53199999999955594, 4.525648266262820130, -1.449999999996023359 ) ) ;
#348 = ORIENTED_EDGE ( 'NONE', *, *, #927, .T. ) ;
#349 = CARTESIAN_POINT ( 'NONE',  ( -28.34268830564797170, 3.124452400329522650, 3.255089837559082877 ) ) ;
#350 = LINE ( 'NONE', #173, #295 ) ;
#351 = EDGE_CURVE ( 'NONE', #625, #214, #574, .T. ) ;
#352 = DIRECTION ( 'NONE',  ( -0.000000000000000000, 1.000000000000000000, -0.000000000000000000 ) ) ;
#353 = LINE ( 'NONE', #442, #463 ) ;
#354 = ORIENTED_EDGE ( 'NONE', *, *, #448, .F. ) ;
#355 = PLANE ( 'NONE',  #313 ) ;
#356 = DIRECTION ( 'NONE',  ( -0.000000000000000000, 1.000000000000000000, -0.000000000000000000 ) ) ;
#357 = ORIENTED_EDGE ( 'NONE', *, *, #405, .F. ) ;
#358 =( LENGTH_UNIT ( ) NAMED_UNIT ( * ) SI_UNIT ( .MILLI., .METRE. ) );
#359 = EDGE_LOOP ( 'NONE', ( #1053, #140, #901, #191, #386, #565, #300, #687 ) ) ;
#360 = CARTESIAN_POINT ( 'NONE',  ( -27.03200000000000003, 3.188654003919942692, 4.000000000000000000 ) ) ;
#361 = CARTESIAN_POINT ( 'NONE',  ( -24.53200000000000003, 0.000000000000000000, -5.000000000000000000 ) ) ;
#362 = CONICAL_SURFACE ( 'NONE', #245, 1.500000000000000444, 0.07130746478528759980 ) ;
#363 = CIRCLE ( 'NONE', #973, 1.199999999999999734 ) ;
#364 = EDGE_LOOP ( 'NONE', ( #131, #950, #668, #833 ) ) ;
#365 = PERSON_AND_ORGANIZATION_ROLE ( 'creator' ) ;
#366 = LOCAL_TIME ( 12, 22, 57.00000000000000000, #212 ) ;
#367 = ORIENTED_EDGE ( 'NONE', *, *, #293, .F. ) ;
#368 = FACE_OUTER_BOUND ( 'NONE', #881, .T. ) ;
#369 = CARTESIAN_POINT ( 'NONE',  ( -30.03200000000000358, 4.200000000000172484, 4.000000000000000000 ) ) ;
#370 = APPROVAL_STATUS ( 'not_yet_approved' ) ;
#371 = EDGE_CURVE ( 'NONE', #712, #193, #898, .T. ) ;
#372 = ORIENTED_EDGE ( 'NONE', *, *, #168, .F. ) ;
#373 = LINE ( 'NONE', #360, #794 ) ;
#374 = CARTESIAN_POINT ( 'NONE',  ( -20.54170619491632266, 3.085510274513953988, 2.696343098077283340 ) ) ;
#375 = PERSON_AND_ORGANIZATION_ROLE ( 'creator' ) ;
#376 = CARTESIAN_POINT ( 'NONE',  ( -19.60951875765402619, 4.830750402076071204, -5.199237187310388641 ) ) ;
#377 = ADVANCED_FACE ( 'NONE', ( #563 ), #8, .T. ) ;
#378 = CARTESIAN_POINT ( 'NONE',  ( -21.27567457279329943, 3.171057091669062356, 3.810022083034452223 ) ) ;
#379 = AXIS2_PLACEMENT_3D ( 'NONE', #78, #387, #970 ) ;
#380 = VERTEX_POINT ( 'NONE', #627 ) ;
#381 = DIRECTION ( 'NONE',  ( -1.000000000000000000, 0.000000000000000000, -0.000000000000000000 ) ) ;
#382 = CARTESIAN_POINT ( 'NONE',  ( -28.53200000000000358, 3.073593128807151853, 2.500000000000000000 ) ) ;
#383 = EDGE_CURVE ( 'NONE', #734, #108, #396, .T. ) ;
#384 = CARTESIAN_POINT ( 'NONE',  ( -20.68358112389952908, 3.117870072833042627, 3.164385870311814841 ) ) ;
#385 = EDGE_CURVE ( 'NONE', #859, #88, #469, .T. ) ;
#386 = ORIENTED_EDGE ( 'NONE', *, *, #864, .T. ) ;
#387 = DIRECTION ( 'NONE',  ( -0.000000000000000000, 0.000000000000000000, 1.000000000000000000 ) ) ;
#388 = CARTESIAN_POINT ( 'NONE',  ( -23.78212569781242536, 3.067142799432819977, -2.396032735930381907 ) ) ;
#389 = LINE ( 'NONE', #1039, #955 ) ;
#390 = EDGE_LOOP ( 'NONE', ( #1, #1049, #763, #406 ) ) ;
#391 = CYLINDRICAL_SURFACE ( 'NONE', #617, 42.50000000000000000 ) ;
#392 = CARTESIAN_POINT ( 'NONE',  ( -28.53200000000000358, 4.200000000000172484, 4.000000000000000000 ) ) ;
#393 = CARTESIAN_POINT ( 'NONE',  ( -20.53200000000000003, 3.079427218253759424, 2.599007781033881415 ) ) ;
#394 = ORIENTED_EDGE ( 'NONE', *, *, #33, .F. ) ;
#395 = DIRECTION ( 'NONE',  ( 0.000000000000000000, 0.000000000000000000, 1.000000000000000000 ) ) ;
#396 = CIRCLE ( 'NONE', #178, 1.199999999999999734 ) ;
#397 = CARTESIAN_POINT ( 'NONE',  ( -22.03200000000000358, 0.000000000000000000, 2.500000000000000444 ) ) ;
#398 = CC_DESIGN_APPROVAL ( #83, ( #164 ) ) ;
#399 = CARTESIAN_POINT ( 'NONE',  ( -28.33446115443954838, 3.124402687325493311, -3.250450325341530000 ) ) ;
#400 = VERTEX_POINT ( 'NONE', #318 ) ;
#401 = LINE ( 'NONE', #317, #135 ) ;
#402 = EDGE_CURVE ( 'NONE', #782, #693, #311, .T. ) ;
#403 = DIRECTION ( 'NONE',  ( -1.000000000000000000, 0.000000000000000000, -0.000000000000000000 ) ) ;
#404 = CARTESIAN_POINT ( 'NONE',  ( -25.28204657040580017, 4.564359210534439271, -2.298502550285786761 ) ) ;
#405 = EDGE_CURVE ( 'NONE', #36, #942, #952, .T. ) ;
#406 = ORIENTED_EDGE ( 'NONE', *, *, #252, .F. ) ;
#407 = DIRECTION ( 'NONE',  ( -0.000000000000000000, 1.000000000000000000, -0.000000000000000000 ) ) ;
#408 = CARTESIAN_POINT ( 'NONE',  ( -28.53200000000000358, 0.000000000000000000, 4.000000000000000000 ) ) ;
#409 = EDGE_CURVE ( 'NONE', #514, #36, #726, .T. ) ;
#410 = CARTESIAN_POINT ( 'NONE',  ( -29.28933400592791614, 4.845169463410016419, 5.309473772256908752 ) ) ;
#411 = VERTEX_POINT ( 'NONE', #4 ) ;
#412 = CARTESIAN_POINT ( 'NONE',  ( -20.53200000000000003, 4.200000000000172484, -5.500000000000000000 ) ) ;
#413 = CLOSED_SHELL ( 'NONE', ( #329, #261, #557, #879, #845, #946, #543, #966, #895, #152, #673, #377, #1043, #752, #1030, #768, #488, #34, #1038, #1031, #748, #497, #964, #750, #715, #158, #1010, #3, #732 ) ) ;
#414 = DIRECTION ( 'NONE',  ( 0.000000000000000000, 0.000000000000000000, -1.000000000000000000 ) ) ;
#415 = CIRCLE ( 'NONE', #431, 1.199999999999999734 ) ;
#416 = VECTOR ( 'NONE', #249, 1000.000000000000000 ) ;
#417 = CARTESIAN_POINT ( 'NONE',  ( -28.16267388452130760, 3.143523871168297124, -3.490523175669510536 ) ) ;
#418 = ORIENTED_EDGE ( 'NONE', *, *, #371, .F. ) ;
#419 = CARTESIAN_POINT ( 'NONE',  ( -20.53200000000000003, 0.000000000000000000, -4.000000000000000000 ) ) ;
#420 = CARTESIAN_POINT ( 'NONE',  ( -27.03200000000000003, 0.000000000000000000, -2.500000000000000000 ) ) ;
#421 = CARTESIAN_POINT ( 'NONE',  ( -19.86498432366117939, 4.850159684325112686, 5.347143039337495019 ) ) ;
#422 = EDGE_CURVE ( 'NONE', #942, #675, #651, .T. ) ;
#423 = ORIENTED_EDGE ( 'NONE', *, *, #813, .F. ) ;
#424 = FACE_OUTER_BOUND ( 'NONE', #47, .T. ) ;
#425 = DIRECTION ( 'NONE',  ( 0.000000000000000000, -1.000000000000000000, 0.000000000000000000 ) ) ;
#426 = CARTESIAN_POINT ( 'NONE',  ( -23.78193529215317170, 4.553838663566533995, -2.102726474483637809 ) ) ;
#427 = ORIENTED_EDGE ( 'NONE', *, *, #533, .F. ) ;
#428 = DIRECTION ( 'NONE',  ( -0.000000000000000000, 1.000000000000000000, -0.000000000000000000 ) ) ;
#429 = CARTESIAN_POINT ( 'NONE',  ( -29.28823712271147883, 4.845256837526524585, -5.310141415724762837 ) ) ;
#430 = EDGE_CURVE ( 'NONE', #336, #611, #169, .T. ) ;
#431 = AXIS2_PLACEMENT_3D ( 'NONE', #260, #746, #677 ) ;
#432 = AXIS2_PLACEMENT_3D ( 'NONE', #698, #858, #943 ) ;
#433 = CARTESIAN_POINT ( 'NONE',  ( -20.53199999999999648, 3.085260623449114892, -2.698003949938951873 ) ) ;
#434 = ORIENTED_EDGE ( 'NONE', *, *, #678, .T. ) ;
#435 =( NAMED_UNIT ( * ) SI_UNIT ( $, .STERADIAN. ) SOLID_ANGLE_UNIT ( ) );
#436 = CARTESIAN_POINT ( 'NONE',  ( -29.83468506001373655, 4.776007235892130609, -4.750068444022407022 ) ) ;
#437 = CARTESIAN_POINT ( 'NONE',  ( -23.87632638117817407, 4.540440685260369591, -1.822845336621061074 ) ) ;
#438 = CARTESIAN_POINT ( 'NONE',  ( -19.03200000000000003, 4.200000000000172484, -4.000000000000000000 ) ) ;
#439 = APPROVAL_ROLE ( '' ) ;
#440 = CARTESIAN_POINT ( 'NONE',  ( -25.26265653824848556, 3.067480397928497027, -2.395739728849726635 ) ) ;
#441 = DIRECTION ( 'NONE',  ( 0.07124704998790711008, -0.9974586998307350960, 0.000000000000000000 ) ) ;
#442 = CARTESIAN_POINT ( 'NONE',  ( -27.03200000000000003, 0.000000000000000000, -4.000000000000000000 ) ) ;
#443 = CALENDAR_DATE ( 2025, 16, 11 ) ;
#444 = ORIENTED_EDGE ( 'NONE', *, *, #638, .T. ) ;
#445 = CARTESIAN_POINT ( 'NONE',  ( -20.53200000000000003, 0.000000000000000000, -4.000000000000000000 ) ) ;
#446 = EDGE_CURVE ( 'NONE', #193, #859, #1005, .T. ) ;
#447 = VECTOR ( 'NONE', #707, 1000.000000000000114 ) ;
#448 = EDGE_CURVE ( 'NONE', #6, #630, #1023, .T. ) ;
#449 = AXIS2_PLACEMENT_3D ( 'NONE', #210, #532, #238 ) ;
#450 = ORIENTED_EDGE ( 'NONE', *, *, #38, .F. ) ;
#451 = SECURITY_CLASSIFICATION_LEVEL ( 'unclassified' ) ;
#452 = ORIENTED_EDGE ( 'NONE', *, *, #430, .T. ) ;
#453 = CARTESIAN_POINT ( 'NONE',  ( -20.43378701602755854, 4.870577163833593737, -5.499999999999944045 ) ) ;
#454 = LINE ( 'NONE', #958, #809 ) ;
#455 = CC_DESIGN_PERSON_AND_ORGANIZATION_ASSIGNMENT ( #1017, #283, ( #916 ) ) ;
#456 = VERTEX_POINT ( 'NONE', #807 ) ;
#457 = DIRECTION ( 'NONE',  ( 0.000000000000000000, 0.000000000000000000, -1.000000000000000000 ) ) ;
#458 = LINE ( 'NONE', #560, #585 ) ;
#459 = VERTEX_POINT ( 'NONE', #79 ) ;
#460 = CARTESIAN_POINT ( 'NONE',  ( -19.10819749787691180, 4.745622827158577195, -4.482082046291641753 ) ) ;
#461 = CARTESIAN_POINT ( 'NONE',  ( -24.33578840846108449, 4.526324028859210813, -1.469455840358967036 ) ) ;
#462 = EDGE_CURVE ( 'NONE', #1034, #380, #534, .T. ) ;
#463 = VECTOR ( 'NONE', #613, 1000.000000000000000 ) ;
#464 = DIRECTION ( 'NONE',  ( -1.000000000000000000, 0.000000000000000000, 0.000000000000000000 ) ) ;
#465 = AXIS2_PLACEMENT_3D ( 'NONE', #420, #425, #414 ) ;
#466 = B_SPLINE_CURVE_WITH_KNOTS ( 'NONE', 3,
 ( #659, #247, #905, #174, #569, #170, #819, #995, #410, #737, #251, #824 ),
 .UNSPECIFIED., .F., .F.,
 ( 4, 2, 2, 2, 2, 4 ),
 ( 0.007051046784733523871, 0.007638800859749617263, 0.007932677897257663091, 0.008226554934765709787, 0.008814309009781803178, 0.009402063084797896569 ),
 .UNSPECIFIED. ) ;
#467 = EDGE_LOOP ( 'NONE', ( #522, #133, #550, #541 ) ) ;
#468 = DIRECTION ( 'NONE',  ( 0.000000000000000000, 0.000000000000000000, 1.000000000000000000 ) ) ;
#469 = LINE ( 'NONE', #714, #825 ) ;
#470 = CARTESIAN_POINT ( 'NONE',  ( -20.57971614798582394, 3.098116211226320527, 2.887811617685997589 ) ) ;
#471 = ORIENTED_EDGE ( 'NONE', *, *, #558, .T. ) ;
#472 = CARTESIAN_POINT ( 'NONE',  ( -28.53200000000000358, 0.000000000000000000, 5.199999999999997513 ) ) ;
#473 = DIRECTION ( 'NONE',  ( 0.000000000000000000, 0.000000000000000000, -1.000000000000000000 ) ) ;
#474 = DIRECTION ( 'NONE',  ( -0.000000000000000000, 1.000000000000000000, -0.000000000000000000 ) ) ;
#475 = ORIENTED_EDGE ( 'NONE', *, *, #276, .F. ) ;
#476 = DIRECTION ( 'NONE',  ( 0.000000000000000000, -0.07124704998790712396, -0.9974586998307352070 ) ) ;
#477 = DIRECTION ( 'NONE',  ( -0.000000000000000000, 1.000000000000000000, -0.000000000000000000 ) ) ;
#478 = EDGE_CURVE ( 'NONE', #675, #739, #601, .T. ) ;
#479 = CARTESIAN_POINT ( 'NONE',  ( -30.03200000000000358, 4.695588473793673501, -4.000000000000000000 ) ) ;
#480 = EDGE_CURVE ( 'NONE', #203, #204, #113, .T. ) ;
#481 = VECTOR ( 'NONE', #244, 1000.000000000000000 ) ;
#482 = EDGE_LOOP ( 'NONE', ( #842, #394, #493, #122 ) ) ;
#483 = CARTESIAN_POINT ( 'NONE',  ( -28.53200000000000358, 4.200000000000172484, -5.500000000000000000 ) ) ;
#484 = VECTOR ( 'NONE', #35, 1000.000000000000000 ) ;
#485 = CARTESIAN_POINT ( 'NONE',  ( -19.03200000000000003, 45.50000000000000711, 0.000000000000000000 ) ) ;
#486 = AXIS2_PLACEMENT_3D ( 'NONE', #665, #428, #997 ) ;
#487 = CARTESIAN_POINT ( 'NONE',  ( -28.53200000000000358, 0.000000000000000000, 2.499999999999999556 ) ) ;
#488 = ADVANCED_FACE ( 'NONE', ( #105 ), #95, .F. ) ;
#489 = ORIENTED_EDGE ( 'NONE', *, *, #241, .F. ) ;
#490 = CARTESIAN_POINT ( 'NONE',  ( -27.78362571551862104, 3.170348957958188940, 3.801792895318245602 ) ) ;
#491 = CARTESIAN_POINT ( 'NONE',  ( -24.33579854362396944, 3.025394310699206724, -1.469453708011542847 ) ) ;
#492 = CARTESIAN_POINT ( 'NONE',  ( -24.92383511118952910, 4.528369809370586196, -1.531235790218459236 ) ) ;
#493 = ORIENTED_EDGE ( 'NONE', *, *, #200, .F. ) ;
#494 = FACE_OUTER_BOUND ( 'NONE', #248, .T. ) ;
#495 = CARTESIAN_POINT ( 'NONE',  ( -28.72850036041558752, 4.870577163833597290, -5.500000000000002665 ) ) ;
#496 = CARTESIAN_POINT ( 'NONE',  ( -25.28195326255164588, 4.553736628342383241, -2.100789546022286292 ) ) ;
#497 = ADVANCED_FACE ( 'NONE', ( #272 ), #281, .T. ) ;
#498 = VERTEX_POINT ( 'NONE', #753 ) ;
#499 = CARTESIAN_POINT ( 'NONE',  ( -27.69748677278427351, 3.174532392607721576, 3.847885492343640301 ) ) ;
#500 = CIRCLE ( 'NONE', #345, 42.50000000000000000 ) ;
#501 = DIRECTION ( 'NONE',  ( -0.000000000000000000, 1.000000000000000000, -0.000000000000000000 ) ) ;
#502 = VECTOR ( 'NONE', #352, 1000.000000000000000 ) ;
#503 = VECTOR ( 'NONE', #40, 1000.000000000000000 ) ;
#504 = CARTESIAN_POINT ( 'NONE',  ( -24.53199999999955594, 3.024742496366062294, -1.449999999996035127 ) ) ;
#505 = ORIENTED_EDGE ( 'NONE', *, *, #74, .F. ) ;
#506 = CARTESIAN_POINT ( 'NONE',  ( -22.03200000000000358, 0.000000000000000000, -2.500000000000000000 ) ) ;
#507 = CYLINDRICAL_SURFACE ( 'NONE', #549, 1.500000000000000444 ) ;
#508 = CARTESIAN_POINT ( 'NONE',  ( -24.53200000000000358, 4.606265761121791869, -2.949999999999999734 ) ) ;
#509 = VERTEX_POINT ( 'NONE', #573 ) ;
#510 = DIRECTION ( 'NONE',  ( -0.000000000000000000, 0.000000000000000000, 1.000000000000000000 ) ) ;
#511 = ADVANCED_BREP_SHAPE_REPRESENTATION ( 'EN02-PALM_TOP_CAP', ( #789, #432 ), #1026 ) ;
#512 = CARTESIAN_POINT ( 'NONE',  ( -28.53200000000000358, 4.870577163833599954, -5.500000000000000000 ) ) ;
#513 = CARTESIAN_POINT ( 'NONE',  ( -21.54816078909268384, 3.181449202377590435, -3.923224354488734633 ) ) ;
#514 = VERTEX_POINT ( 'NONE', #903 ) ;
#515 = APPROVAL_ROLE ( '' ) ;
#516 = CARTESIAN_POINT ( 'NONE',  ( -29.98435349232440217, 4.735324867564949969, -4.387541643827499449 ) ) ;
#517 = AXIS2_PLACEMENT_3D ( 'NONE', #650, #551, #963 ) ;
#518 = DIRECTION ( 'NONE',  ( 0.000000000000000000, 0.9974586998307350960, 0.07124704998790731825 ) ) ;
#519 = APPROVAL_PERSON_ORGANIZATION ( #610, #83, #439 ) ;
#520 = ORIENTED_EDGE ( 'NONE', *, *, #422, .F. ) ;
#521 = PERSON_AND_ORGANIZATION ( #953, #97 ) ;
#522 = ORIENTED_EDGE ( 'NONE', *, *, #107, .F. ) ;
#523 = CARTESIAN_POINT ( 'NONE',  ( -24.53200000000000003, 0.000000000000000000, 4.000000000000000888 ) ) ;
#524 = CARTESIAN_POINT ( 'NONE',  ( -30.03200000000000358, 4.200000000000172484, -4.000000000000000000 ) ) ;
#525 = ORIENTED_EDGE ( 'NONE', *, *, #292, .F. ) ;
#526 = MECHANICAL_CONTEXT ( 'NONE', #846, 'mechanical' ) ;
#527 = FACE_OUTER_BOUND ( 'NONE', #71, .T. ) ;
#528 = EDGE_CURVE ( 'NONE', #456, #514, #350, .T. ) ;
#529 = CARTESIAN_POINT ( 'NONE',  ( -23.78212991098191154, 4.569603718733003639, -2.396039966565417956 ) ) ;
#530 = CARTESIAN_POINT ( 'NONE',  ( -28.53200000000000358, 45.50000000000000711, 0.000000000000000000 ) ) ;
#531 = CALENDAR_DATE ( 2025, 16, 11 ) ;
#532 = DIRECTION ( 'NONE',  ( -0.000000000000000000, -1.000000000000000000, -0.000000000000000000 ) ) ;
#533 = EDGE_CURVE ( 'NONE', #509, #149, #415, .T. ) ;
#534 = CIRCLE ( 'NONE', #48, 1.500000000000000000 ) ;
#535 = CONICAL_SURFACE ( 'NONE', #486, 1.500000000000000444, 0.07130746478528779408 ) ;
#536 = ORIENTED_EDGE ( 'NONE', *, *, #765, .T. ) ;
#537 = DATE_AND_TIME ( #37, #366 ) ;
#538 = ORIENTED_EDGE ( 'NONE', *, *, #335, .F. ) ;
#539 = CARTESIAN_POINT ( 'NONE',  ( -22.03200000000000358, 3.188654003919948021, -4.000000000000000000 ) ) ;
#540 = CARTESIAN_POINT ( 'NONE',  ( -20.72953884556046233, 3.124402687325494199, 3.250450325341531332 ) ) ;
#541 = ORIENTED_EDGE ( 'NONE', *, *, #638, .F. ) ;
#542 = CARTESIAN_POINT ( 'NONE',  ( -25.26239932715381897, 3.047147387094526927, -2.003384100548974978 ) ) ;
#543 = ADVANCED_FACE ( 'NONE', ( #742 ), #507, .T. ) ;
#544 = LINE ( 'NONE', #303, #63 ) ;
#545 = EDGE_LOOP ( 'NONE', ( #975, #341, #54, #1012, #232, #931, #826, #780 ) ) ;
#546 = CARTESIAN_POINT ( 'NONE',  ( -28.53200000000000358, 0.000000000000000000, 4.000000000000000000 ) ) ;
#547 = CARTESIAN_POINT ( 'NONE',  ( -23.86315860417376555, 3.078869511420688543, -2.591702804525618742 ) ) ;
#548 = CARTESIAN_POINT ( 'NONE',  ( -20.60847499963592000, 3.104712281062627977, 2.982927140915148101 ) ) ;
#549 = AXIS2_PLACEMENT_3D ( 'NONE', #32, #501, #584 ) ;
#550 = ORIENTED_EDGE ( 'NONE', *, *, #259, .T. ) ;
#551 = DIRECTION ( 'NONE',  ( 0.9974586998307352070, -0.07124704998790712396, 0.000000000000000000 ) ) ;
#552 = CARTESIAN_POINT ( 'NONE',  ( -23.80130845239872883, 3.047197001249109416, -2.004440229791874639 ) ) ;
#553 = CARTESIAN_POINT ( 'NONE',  ( -28.53200000000000358, 3.073593128807151853, -2.500000000000000000 ) ) ;
#554 = ORIENTED_EDGE ( 'NONE', *, *, #575, .F. ) ;
#555 = DIRECTION ( 'NONE',  ( -1.000000000000000000, 0.000000000000000000, 0.000000000000000000 ) ) ;
#556 = CARTESIAN_POINT ( 'NONE',  ( -24.43282020536625510, 3.102505970281686842, -2.949999999999999734 ) ) ;
#557 = ADVANCED_FACE ( 'NONE', ( #18 ), #26, .T. ) ;
#558 = EDGE_CURVE ( 'NONE', #912, #207, #1004, .T. ) ;
#559 = B_SPLINE_CURVE_WITH_KNOTS ( 'NONE', 3,
 ( #325, #676, #902, #1001, #187, #499, #490, #907, #656, #993, #349, #332, #661, #258 ),
 .UNSPECIFIED., .F., .F.,
 ( 4, 2, 2, 2, 2, 2, 4 ),
 ( 0.000000000000000000, 0.0002933111715478400449, 0.0005866223430956800898, 0.0008799335146435201347, 0.001173244686191360180, 0.001759867029287040269, 0.002346489372382720359 ),
 .UNSPECIFIED. ) ;
#560 = CARTESIAN_POINT ( 'NONE',  ( -30.03200000000000358, 4.200000000000172484, 3.999999999999999112 ) ) ;
#561 = ORIENTED_EDGE ( 'NONE', *, *, #618, .T. ) ;
#562 = DIRECTION ( 'NONE',  ( -0.000000000000000000, 1.000000000000000000, -0.000000000000000000 ) ) ;
#563 = FACE_OUTER_BOUND ( 'NONE', #944, .T. ) ;
#564 = CARTESIAN_POINT ( 'NONE',  ( -19.61560071800329652, 4.829979365946832637, 5.191575612219235580 ) ) ;
#565 = ORIENTED_EDGE ( 'NONE', *, *, #168, .T. ) ;
#566 = FACE_OUTER_BOUND ( 'NONE', #796, .T. ) ;
#567 = AXIS2_PLACEMENT_3D ( 'NONE', #483, #476, #729 ) ;
#568 = CARTESIAN_POINT ( 'NONE',  ( -24.07129294347510040, 3.030068560574576075, -1.599950884751856206 ) ) ;
#569 = CARTESIAN_POINT ( 'NONE',  ( -29.83488901532545867, 4.775963219993051290, 4.749688629442001542 ) ) ;
#570 = ORIENTED_EDGE ( 'NONE', *, *, #74, .T. ) ;
#571 = CYLINDRICAL_SURFACE ( 'NONE', #759, 1.500000000000000000 ) ;
#572 = EDGE_CURVE ( 'NONE', #1024, #996, #662, .T. ) ;
#573 = CARTESIAN_POINT ( 'NONE',  ( -28.53200000000000358, 0.000000000000000000, 5.199999999999997513 ) ) ;
#574 = B_SPLINE_CURVE_WITH_KNOTS ( 'NONE', 3,
 ( #229, #556, #736, #814, #234, #547, #388, #162, #552, #90, #86, #568, #322, #491, #977, #876 ),
 .UNSPECIFIED., .F., .F.,
 ( 4, 2, 2, 2, 2, 2, 2, 4 ),
 ( 3.496446946337351263E-18, 0.0002933113657578985075, 0.0005866227315157935456, 0.001173245463031590777, 0.001466556828789489448, 0.001759868194547388985, 0.002053179560305288306, 0.002346490926063187626 ),
 .UNSPECIFIED. ) ;
#575 = EDGE_CURVE ( 'NONE', #611, #400, #844, .T. ) ;
#576 = CARTESIAN_POINT ( 'NONE',  ( -20.04689673070204137, 4.860184263089210255, 5.422806767988407550 ) ) ;
#577 = B_SPLINE_CURVE_WITH_KNOTS ( 'NONE', 3,
 ( #841, #937, #919, #189, #513, #112, #27, #692, #202, #930, #185, #941, #433, #853 ),
 .UNSPECIFIED., .F., .F.,
 ( 4, 2, 2, 2, 2, 2, 4 ),
 ( 0.000000000000000000, 0.0002933111715478404244, 0.0005866223430956808487, 0.0008799335146435211105, 0.001173244686191361697, 0.001759867029287041570, 0.002346489372382721660 ),
 .UNSPECIFIED. ) ;
#578 = EDGE_LOOP ( 'NONE', ( #992, #304, #20, #357 ) ) ;
#579 = CARTESIAN_POINT ( 'NONE',  ( -28.53200000000000358, 3.188654003919942692, 4.000000000000000000 ) ) ;
#580 = CARTESIAN_POINT ( 'NONE',  ( -20.53200000000000003, 0.000000000000000000, 5.500000000000000000 ) ) ;
#581 = CARTESIAN_POINT ( 'NONE',  ( -28.22589133356489199, 3.137212891389727254, -3.413347816151023562 ) ) ;
#582 = ORIENTED_EDGE ( 'NONE', *, *, #689, .F. ) ;
#583 = DIRECTION ( 'NONE',  ( 0.000000000000000000, 0.000000000000000000, -1.000000000000000000 ) ) ;
#584 = DIRECTION ( 'NONE',  ( 0.000000000000000000, 0.000000000000000000, 1.000000000000000000 ) ) ;
#585 = VECTOR ( 'NONE', #148, 1000.000000000000000 ) ;
#586 = VECTOR ( 'NONE', #875, 1000.000000000000000 ) ;
#587 = CARTESIAN_POINT ( 'NONE',  ( -27.03200000000000003, 0.000000000000000000, 4.000000000000000888 ) ) ;
#588 = ORIENTED_EDGE ( 'NONE', *, *, #592, .F. ) ;
#589 = CARTESIAN_POINT ( 'NONE',  ( -28.53200000000000358, 0.000000000000000000, -4.000000000000000000 ) ) ;
#590 = DIRECTION ( 'NONE',  ( 0.000000000000000000, 0.000000000000000000, -1.000000000000000000 ) ) ;
#591 = CARTESIAN_POINT ( 'NONE',  ( -24.07127471114119999, 4.531169970660913648, -1.599964513543100209 ) ) ;
#592 = EDGE_CURVE ( 'NONE', #39, #214, #909, .T. ) ;
#593 = ORIENTED_EDGE ( 'NONE', *, *, #678, .F. ) ;
#594 = PLANE ( 'NONE',  #657 ) ;
#595 = ORIENTED_EDGE ( 'NONE', *, *, #293, .T. ) ;
#596 = CARTESIAN_POINT ( 'NONE',  ( -29.88060225768942502, 4.766040995693108684, -4.664001145857991304 ) ) ;
#597 = LINE ( 'NONE', #285, #263 ) ;
#598 = FACE_OUTER_BOUND ( 'NONE', #773, .T. ) ;
#599 = PERSON_AND_ORGANIZATION ( #953, #97 ) ;
#600 = DIRECTION ( 'NONE',  ( -0.000000000000000000, -1.000000000000000000, 0.000000000000000000 ) ) ;
#601 = CIRCLE ( 'NONE', #634, 1.500000000000000444 ) ;
#602 = AXIS2_PLACEMENT_3D ( 'NONE', #589, #53, #44 ) ;
#603 = LINE ( 'NONE', #524, #862 ) ;
#604 = CARTESIAN_POINT ( 'NONE',  ( -30.03200000000000358, 4.200000000000172484, -4.000000000000000000 ) ) ;
#605 = PERSON_AND_ORGANIZATION ( #953, #97 ) ;
#606 = EDGE_LOOP ( 'NONE', ( #664, #1045, #117, #84 ) ) ;
#607 = CARTESIAN_POINT ( 'NONE',  ( -19.33815210226526560, 4.795387655377182590, -4.913371167774918113 ) ) ;
#608 = DIRECTION ( 'NONE',  ( 0.000000000000000000, -0.000000000000000000, -1.000000000000000000 ) ) ;
#609 = ORIENTED_EDGE ( 'NONE', *, *, #91, .T. ) ;
#610 = PERSON_AND_ORGANIZATION ( #953, #97 ) ;
#611 = VERTEX_POINT ( 'NONE', #177 ) ;
#612 = CARTESIAN_POINT ( 'NONE',  ( -25.13196426312353893, 3.083302837246175265, -2.660567679803110597 ) ) ;
#613 = DIRECTION ( 'NONE',  ( -0.000000000000000000, -1.000000000000000000, 0.000000000000000000 ) ) ;
#614 = ORIENTED_EDGE ( 'NONE', *, *, #184, .T. ) ;
#615 = CARTESIAN_POINT ( 'NONE',  ( -19.03200000000000003, 4.695588473793671724, -4.000000000000000000 ) ) ;
#616 = AXIS2_PLACEMENT_3D ( 'NONE', #1011, #269, #280 ) ;
#617 = AXIS2_PLACEMENT_3D ( 'NONE', #812, #2, #981 ) ;
#618 = EDGE_CURVE ( 'NONE', #456, #336, #363, .T. ) ;
#619 = VECTOR ( 'NONE', #986, 1000.000000000000000 ) ;
#620 = FACE_OUTER_BOUND ( 'NONE', #15, .T. ) ;
#621 = APPLICATION_PROTOCOL_DEFINITION ( 'international standard', 'config_control_design', 1994, #918 ) ;
#622 = EDGE_LOOP ( 'NONE', ( #316, #850, #906, #938 ) ) ;
#623 = DIRECTION ( 'NONE',  ( 0.000000000000000000, 1.000000000000000000, -0.000000000000000000 ) ) ;
#624 = CARTESIAN_POINT ( 'NONE',  ( -21.83362781564505184, 3.188654003919940916, 4.000000000000001776 ) ) ;
#625 = VERTEX_POINT ( 'NONE', #922 ) ;
#626 = CYLINDRICAL_SURFACE ( 'NONE', #723, 1.500000000000000444 ) ;
#627 = CARTESIAN_POINT ( 'NONE',  ( -20.53200000000000003, 0.000000000000000000, 2.500000000000000444 ) ) ;
#628 = CARTESIAN_POINT ( 'NONE',  ( -30.03200000000000358, 0.000000000000000000, 4.000000000000000000 ) ) ;
#629 = CC_DESIGN_PERSON_AND_ORGANIZATION_ASSIGNMENT ( #275, #137, ( #164 ) ) ;
#630 = VERTEX_POINT ( 'NONE', #188 ) ;
#631 = PLANE ( 'NONE',  #379 ) ;
#632 = CARTESIAN_POINT ( 'NONE',  ( -20.53200000000000003, 3.188654003919943136, 2.500000000000000444 ) ) ;
#633 = DIRECTION ( 'NONE',  ( -0.000000000000000000, 1.000000000000000000, -0.000000000000000000 ) ) ;
#634 = AXIS2_PLACEMENT_3D ( 'NONE', #118, #1002, #994 ) ;
#635 = VECTOR ( 'NONE', #802, 1000.000000000000000 ) ;
#636 = ORIENTED_EDGE ( 'NONE', *, *, #277, .T. ) ;
#637 = CARTESIAN_POINT ( 'NONE',  ( -20.53200000000000003, 0.000000000000000000, -5.000000000000000000 ) ) ;
#638 = EDGE_CURVE ( 'NONE', #693, #498, #1019, .T. ) ;
#639 = EDGE_CURVE ( 'NONE', #204, #1034, #704, .T. ) ;
#640 = DIRECTION ( 'NONE',  ( 0.000000000000000000, 0.000000000000000000, -1.000000000000000000 ) ) ;
#641 = LINE ( 'NONE', #628, #132 ) ;
#642 = DATE_AND_TIME ( #531, #98 ) ;
#643 = ORIENTED_EDGE ( 'NONE', *, *, #335, .T. ) ;
#644 = CARTESIAN_POINT ( 'NONE',  ( -28.53200000000000358, 0.000000000000000000, -2.500000000000000000 ) ) ;
#645 = LINE ( 'NONE', #632, #793 ) ;
#646 = CC_DESIGN_PERSON_AND_ORGANIZATION_ASSIGNMENT ( #521, #702, ( #923 ) ) ;
#647 = B_SPLINE_CURVE_WITH_KNOTS ( 'NONE', 3,
 ( #701, #393, #374, #470, #548, #384, #540, #60, #711, #961, #378, #299, #624, #315 ),
 .UNSPECIFIED., .F., .F.,
 ( 4, 2, 2, 2, 2, 2, 4 ),
 ( 0.000000000000000000, 0.0002933110610308887686, 0.0005866221220617775373, 0.0008799331830926663059, 0.001173244244123555075, 0.001759866366185340852, 0.002346488488247127496 ),
 .UNSPECIFIED. ) ;
#648 = CARTESIAN_POINT ( 'NONE',  ( -24.53200000000000003, 81.49999999999998579, -2.949999999999999734 ) ) ;
#649 = VERTEX_POINT ( 'NONE', #783 ) ;
#650 = CARTESIAN_POINT ( 'NONE',  ( -19.03200000000000003, 4.200000000000172484, -4.000000000000000000 ) ) ;
#651 = LINE ( 'NONE', #987, #481 ) ;
#652 = CARTESIAN_POINT ( 'NONE',  ( -19.03200000000000003, 4.695588473793671724, 4.000000000000000000 ) ) ;
#653 = EDGE_CURVE ( 'NONE', #204, #67, #373, .T. ) ;
#654 = CIRCLE ( 'NONE', #972, 41.00000000000000000 ) ;
#655 = ORIENTED_EDGE ( 'NONE', *, *, #533, .T. ) ;
#656 = CARTESIAN_POINT ( 'NONE',  ( -28.02374628699140757, 3.155214943755723311, 3.629599403756920140 ) ) ;
#657 = AXIS2_PLACEMENT_3D ( 'NONE', #817, #510, #839 ) ;
#658 = DIRECTION ( 'NONE',  ( -0.000000000000000000, -1.000000000000000000, 0.000000000000000000 ) ) ;
#659 = CARTESIAN_POINT ( 'NONE',  ( -30.03200000000000358, 4.695588473793671724, 4.000000000000000000 ) ) ;
#660 = ORIENTED_EDGE ( 'NONE', *, *, #126, .F. ) ;
#661 = CARTESIAN_POINT ( 'NONE',  ( -28.53200000000000358, 3.085260623449117556, 2.698003949938953205 ) ) ;
#662 = LINE ( 'NONE', #998, #741 ) ;
#663 = CARTESIAN_POINT ( 'NONE',  ( -24.53200000000000358, 4.606265761121791869, -2.949999999999999734 ) ) ;
#664 = ORIENTED_EDGE ( 'NONE', *, *, #201, .F. ) ;
#665 = CARTESIAN_POINT ( 'NONE',  ( -28.53200000000000358, 4.200000000000172484, 4.000000000000000000 ) ) ;
#666 = CARTESIAN_POINT ( 'NONE',  ( -20.53200000000000003, 0.000000000000000000, 4.000000000000000000 ) ) ;
#667 = CARTESIAN_POINT ( 'NONE',  ( -28.38041887610048519, 3.117870072833042627, -3.164385870311815285 ) ) ;
#668 = ORIENTED_EDGE ( 'NONE', *, *, #153, .F. ) ;
#669 = FACE_OUTER_BOUND ( 'NONE', #331, .T. ) ;
#670 = EDGE_CURVE ( 'NONE', #712, #1024, #298, .T. ) ;
#671 = CARTESIAN_POINT ( 'NONE',  ( -29.66290462283898677, 4.804765298758449710, -4.990264707291514945 ) ) ;
#672 = VECTOR ( 'NONE', #716, 1000.000000000000000 ) ;
#673 = ADVANCED_FACE ( 'NONE', ( #284, #851 ), #786, .F. ) ;
#674 = DIRECTION ( 'NONE',  ( 0.000000000000000000, 0.000000000000000000, -1.000000000000000000 ) ) ;
#675 = VERTEX_POINT ( 'NONE', #696 ) ;
#676 = CARTESIAN_POINT ( 'NONE',  ( -27.13118134761162636, 3.188654003919942692, 4.000000000000000000 ) ) ;
#677 = DIRECTION ( 'NONE',  ( 0.000000000000000000, 0.000000000000000000, -1.000000000000000000 ) ) ;
#678 = EDGE_CURVE ( 'NONE', #149, #734, #940, .T. ) ;
#679 = CARTESIAN_POINT ( 'NONE',  ( -30.03200000000000358, 45.50000000000000711, 0.000000000000000000 ) ) ;
#680 = DIRECTION ( 'NONE',  ( 0.000000000000000000, 0.000000000000000000, -1.000000000000000000 ) ) ;
#681 = APPROVAL_DATE_TIME ( #537, #837 ) ;
#682 = EDGE_LOOP ( 'NONE', ( #816, #857, #755, #980 ) ) ;
#683 = CARTESIAN_POINT ( 'NONE',  ( -28.53200000000000358, 4.200000000000172484, 5.500000000000000000 ) ) ;
#684 = DIRECTION ( 'NONE',  ( 0.000000000000000000, 0.000000000000000000, -1.000000000000000000 ) ) ;
#685 = ORIENTED_EDGE ( 'NONE', *, *, #478, .T. ) ;
#686 = COORDINATED_UNIVERSAL_TIME_OFFSET ( 8, 0, .AHEAD. ) ;
#687 = ORIENTED_EDGE ( 'NONE', *, *, #446, .T. ) ;
#688 = DIRECTION ( 'NONE',  ( -0.000000000000000000, 1.000000000000000000, 0.000000000000000000 ) ) ;
#689 = EDGE_CURVE ( 'NONE', #214, #625, #968, .T. ) ;
#690 = AXIS2_PLACEMENT_3D ( 'NONE', #408, #12, #224 ) ;
#691 = CC_DESIGN_APPROVAL ( #900, ( #957 ) ) ;
#692 = CARTESIAN_POINT ( 'NONE',  ( -21.11736977414538075, 3.160711740200353947, -3.692919741006522649 ) ) ;
#693 = VERTEX_POINT ( 'NONE', #615 ) ;
#694 = COORDINATED_UNIVERSAL_TIME_OFFSET ( 8, 0, .AHEAD. ) ;
#695 = ORIENTED_EDGE ( 'NONE', *, *, #653, .T. ) ;
#696 = CARTESIAN_POINT ( 'NONE',  ( -28.53200000000000358, 4.200000000000172484, -5.500000000000000888 ) ) ;
#697 = ORIENTED_EDGE ( 'NONE', *, *, #307, .F. ) ;
#698 = CARTESIAN_POINT ( 'NONE',  ( 0.000000000000000000, 0.000000000000000000, 0.000000000000000000 ) ) ;
#699 = ORIENTED_EDGE ( 'NONE', *, *, #385, .T. ) ;
#700 = CARTESIAN_POINT ( 'NONE',  ( -24.53199999999955594, 3.024742496366062294, -1.449999999996035127 ) ) ;
#701 = CARTESIAN_POINT ( 'NONE',  ( -20.53200000000000003, 3.073593128807151853, 2.500000000000000444 ) ) ;
#702 = PERSON_AND_ORGANIZATION_ROLE ( 'design_owner' ) ;
#703 = ORIENTED_EDGE ( 'NONE', *, *, #670, .F. ) ;
#704 = LINE ( 'NONE', #523, #503 ) ;
#705 = AXIS2_PLACEMENT_3D ( 'NONE', #392, #477, #312 ) ;
#706 = VECTOR ( 'NONE', #555, 1000.000000000000000 ) ;
#707 = DIRECTION ( 'NONE',  ( -0.07124704998790711008, 0.9974586998307350960, 0.000000000000000000 ) ) ;
#708 = ORIENTED_EDGE ( 'NONE', *, *, #268, .T. ) ;
#709 = DIRECTION ( 'NONE',  ( -0.000000000000000000, 1.000000000000000000, -0.000000000000000000 ) ) ;
#710 = PLANE ( 'NONE',  #346 ) ;
#711 = CARTESIAN_POINT ( 'NONE',  ( -20.90132611547869956, 3.143523871168296679, 3.490523175669510092 ) ) ;
#712 = VERTEX_POINT ( 'NONE', #777 ) ;
#713 = CARTESIAN_POINT ( 'NONE',  ( -19.03200000000000003, 4.695588473793671724, 4.000000000000000000 ) ) ;
#714 = CARTESIAN_POINT ( 'NONE',  ( -28.53200000000000358, 3.188654003919944024, -2.500000000000000000 ) ) ;
#715 = ADVANCED_FACE ( 'NONE', ( #527 ), #355, .T. ) ;
#716 = DIRECTION ( 'NONE',  ( 0.000000000000000000, -1.000000000000000000, -0.000000000000000000 ) ) ;
#717 = VERTEX_POINT ( 'NONE', #855 ) ;
#718 = DIRECTION ( 'NONE',  ( -0.000000000000000000, 1.000000000000000000, -0.000000000000000000 ) ) ;
#719 = DIRECTION ( 'NONE',  ( -0.000000000000000000, 1.000000000000000000, 0.000000000000000000 ) ) ;
#720 = VECTOR ( 'NONE', #294, 1000.000000000000000 ) ;
#721 = CARTESIAN_POINT ( 'NONE',  ( -20.53200000000000003, 4.200000000000172484, 5.500000000000000000 ) ) ;
#722 = VECTOR ( 'NONE', #974, 1000.000000000000000 ) ;
#723 = AXIS2_PLACEMENT_3D ( 'NONE', #62, #709, #468 ) ;
#724 = EDGE_LOOP ( 'NONE', ( #242, #186, #538, #925 ) ) ;
#725 = FACE_OUTER_BOUND ( 'NONE', #390, .T. ) ;
#726 = LINE ( 'NONE', #157, #228 ) ;
#727 = CARTESIAN_POINT ( 'NONE',  ( -19.33200000000000074, 0.000000000000000000, 3.999999999999999112 ) ) ;
#728 = ORIENTED_EDGE ( 'NONE', *, *, #33, .T. ) ;
#729 = DIRECTION ( 'NONE',  ( 1.000000000000000000, 0.000000000000000000, 0.000000000000000000 ) ) ;
#730 = CARTESIAN_POINT ( 'NONE',  ( -20.53200000000000003, 4.200000000000172484, -5.500000000000000888 ) ) ;
#731 = EDGE_CURVE ( 'NONE', #717, #649, #31, .T. ) ;
#732 = ADVANCED_FACE ( 'NONE', ( #368 ), #945, .F. ) ;
#733 = CARTESIAN_POINT ( 'NONE',  ( -19.22008631811205603, 4.776021386590096895, 4.752943479948275929 ) ) ;
#734 = VERTEX_POINT ( 'NONE', #72 ) ;
#735 = CARTESIAN_POINT ( 'NONE',  ( -28.53200000000000358, 0.000000000000000000, 5.500000000000000000 ) ) ;
#736 = CARTESIAN_POINT ( 'NONE',  ( -24.33549473289310683, 3.101133513949334120, -2.930451746824123571 ) ) ;
#737 = CARTESIAN_POINT ( 'NONE',  ( -28.92812508006121774, 4.865100584947833262, 5.459918243502035473 ) ) ;
#738 = AXIS2_PLACEMENT_3D ( 'NONE', #883, #965, #151 ) ;
#739 = VERTEX_POINT ( 'NONE', #85 ) ;
#740 = DIRECTION ( 'NONE',  ( -0.000000000000000000, 0.000000000000000000, -1.000000000000000000 ) ) ;
#741 = VECTOR ( 'NONE', #111, 1000.000000000000000 ) ;
#742 = FACE_OUTER_BOUND ( 'NONE', #144, .T. ) ;
#743 = CARTESIAN_POINT ( 'NONE',  ( -24.72789492237932052, 4.525648266262950692, -1.449999999999813882 ) ) ;
#744 = EDGE_LOOP ( 'NONE', ( #1006, #211, #423, #520 ) ) ;
#745 = DIRECTION ( 'NONE',  ( 0.000000000000000000, 0.000000000000000000, 1.000000000000000000 ) ) ;
#746 = DIRECTION ( 'NONE',  ( -0.000000000000000000, -1.000000000000000000, 0.000000000000000000 ) ) ;
#747 = CARTESIAN_POINT ( 'NONE',  ( -25.13140268287861900, 4.536825427829469071, -1.738712124135779025 ) ) ;
#748 = ADVANCED_FACE ( 'NONE', ( #1046 ), #156, .T. ) ;
#749 = VERTEX_POINT ( 'NONE', #223 ) ;
#750 = ADVANCED_FACE ( 'NONE', ( #305 ), #161, .T. ) ;
#751 = FACE_OUTER_BOUND ( 'NONE', #219, .T. ) ;
#752 = ADVANCED_FACE ( 'NONE', ( #566 ), #631, .T. ) ;
#753 = CARTESIAN_POINT ( 'NONE',  ( -20.53199999999959502, 4.870577163834533430, -5.500000000006902923 ) ) ;
#754 = CARTESIAN_POINT ( 'NONE',  ( -24.15388045383863869, 4.529097441613730624, -1.544851645311853261 ) ) ;
#755 = ORIENTED_EDGE ( 'NONE', *, *, #830, .T. ) ;
#756 = PLANE ( 'NONE',  #878 ) ;
#757 = PRODUCT_RELATED_PRODUCT_CATEGORY ( 'detail', '', ( #923 ) ) ;
#758 = DIRECTION ( 'NONE',  ( 0.000000000000000000, 1.000000000000000000, -0.000000000000000000 ) ) ;
#759 = AXIS2_PLACEMENT_3D ( 'NONE', #21, #30, #583 ) ;
#760 = CC_DESIGN_SECURITY_CLASSIFICATION ( #164, ( #916 ) ) ;
#761 = LOCAL_TIME ( 12, 22, 57.00000000000000000, #694 ) ;
#762 = LINE ( 'NONE', #1015, #484 ) ;
#763 = ORIENTED_EDGE ( 'NONE', *, *, #908, .T. ) ;
#764 = DIRECTION ( 'NONE',  ( -0.000000000000000000, 1.000000000000000000, -0.000000000000000000 ) ) ;
#765 = EDGE_CURVE ( 'NONE', #336, #509, #145, .T. ) ;
#766 = CARTESIAN_POINT ( 'NONE',  ( -24.33548390398261319, 4.604842640427706968, -2.930449103969758440 ) ) ;
#767 = LINE ( 'NONE', #43, #988 ) ;
#768 = ADVANCED_FACE ( 'NONE', ( #886, #227 ), #391, .T. ) ;
#769 = ORIENTED_EDGE ( 'NONE', *, *, #110, .T. ) ;
#770 = CARTESIAN_POINT ( 'NONE',  ( -19.39997598979767801, 4.804620369587773610, -4.989094034357963281 ) ) ;
#771 = LINE ( 'NONE', #730, #843 ) ;
#772 = B_SPLINE_CURVE_WITH_KNOTS ( 'NONE', 3,
 ( #46, #836, #766, #206, #195, #119, #529, #426, #142, #437, #64, #591, #754, #461, #792, #347 ),
 .UNSPECIFIED., .F., .F.,
 ( 4, 2, 2, 2, 2, 2, 2, 4 ),
 ( 3.496446946337351263E-18, 0.0002933267531121559746, 0.0005866535062243084797, 0.001173307012448612406, 0.001466633765560763610, 0.001759960518672915464, 0.002053287271785067536, 0.002346614024897219174 ),
 .UNSPECIFIED. ) ;
#773 = EDGE_LOOP ( 'NONE', ( #643, #593, #769, #959 ) ) ;
#774 = DATE_AND_TIME ( #443, #230 ) ;
#775 = ORIENTED_EDGE ( 'NONE', *, *, #252, .T. ) ;
#776 = AXIS2_PLACEMENT_3D ( 'NONE', #604, #854, #680 ) ;
#777 = CARTESIAN_POINT ( 'NONE',  ( -22.03200000000000358, 0.000000000000000000, -4.000000000000000000 ) ) ;
#778 = AXIS2_PLACEMENT_3D ( 'NONE', #273, #356, #674 ) ;
#779 = AXIS2_PLACEMENT_3D ( 'NONE', #16, #11, #740 ) ;
#780 = ORIENTED_EDGE ( 'NONE', *, *, #947, .T. ) ;
#781 = APPROVAL_ROLE ( '' ) ;
#782 = VERTEX_POINT ( 'NONE', #713 ) ;
#783 = CARTESIAN_POINT ( 'NONE',  ( -19.33200000000000074, 0.000000000000000000, -4.000000000000000000 ) ) ;
#784 = DIRECTION ( 'NONE',  ( 0.000000000000000000, 0.000000000000000000, 1.000000000000000000 ) ) ;
#785 = APPROVAL_STATUS ( 'not_yet_approved' ) ;
#786 = CYLINDRICAL_SURFACE ( 'NONE', #1042, 41.00000000000000000 ) ;
#787 = EDGE_CURVE ( 'NONE', #108, #717, #882, .T. ) ;
#788 = CARTESIAN_POINT ( 'NONE',  ( -19.03200000000000003, 0.000000000000000000, -4.000000000000000000 ) ) ;
#789 = MANIFOLD_SOLID_BREP ( 'Cut-Extrude6', #413 ) ;
#790 = ORIENTED_EDGE ( 'NONE', *, *, #107, .T. ) ;
#791 = FACE_OUTER_BOUND ( 'NONE', #467, .T. ) ;
#792 = CARTESIAN_POINT ( 'NONE',  ( -24.43403077839737492, 4.525648266262961350, -1.450000000000087219 ) ) ;
#793 = VECTOR ( 'NONE', #971, 1000.000000000000000 ) ;
#794 = VECTOR ( 'NONE', #688, 1000.000000000000000 ) ;
#795 = LINE ( 'NONE', #1052, #722 ) ;
#796 = EDGE_LOOP ( 'NONE', ( #77, #728, #418, #1000 ) ) ;
#797 = PLANE ( 'NONE',  #296 ) ;
#798 = DIRECTION ( 'NONE',  ( 1.000000000000000000, -0.000000000000000000, -0.000000000000000000 ) ) ;
#799 = FACE_OUTER_BOUND ( 'NONE', #724, .T. ) ;
#800 = B_SPLINE_CURVE_WITH_KNOTS ( 'NONE', 3,
 ( #990, #984, #999, #102, #576, #421, #23, #564, #893, #815, #733, #9, #323, #652 ),
 .UNSPECIFIED., .F., .F.,
 ( 4, 2, 2, 2, 2, 2, 4 ),
 ( 0.000000000000000000, 0.0002941274342309645380, 0.0005882548684619290759, 0.0008823823026928936681, 0.001176509736923858152, 0.001764764605385779530, 0.002353019473847701125 ),
 .UNSPECIFIED. ) ;
#801 = ORIENTED_EDGE ( 'NONE', *, *, #217, .T. ) ;
#802 = DIRECTION ( 'NONE',  ( -0.000000000000000000, -1.000000000000000000, -0.000000000000000000 ) ) ;
#803 = CARTESIAN_POINT ( 'NONE',  ( -20.53200000000000003, 0.000000000000000000, 5.200000000000000178 ) ) ;
#804 = LINE ( 'NONE', #75, #447 ) ;
#805 = ORIENTED_EDGE ( 'NONE', *, *, #59, .T. ) ;
#806 = CARTESIAN_POINT ( 'NONE',  ( -20.53200000000000003, 45.50000000000000711, 0.000000000000000000 ) ) ;
#807 = CARTESIAN_POINT ( 'NONE',  ( -19.33200000000000074, 0.000000000000000000, 4.000000000000000000 ) ) ;
#808 = CARTESIAN_POINT ( 'NONE',  ( -27.78832542720670418, 3.171057091669062356, -3.810022083034451779 ) ) ;
#809 = VECTOR ( 'NONE', #225, 1000.000000000000114 ) ;
#810 = CONICAL_SURFACE ( 'NONE', #1008, 1.500000000000000444, 0.07130746478528759980 ) ;
#811 = ORIENTED_EDGE ( 'NONE', *, *, #17, .T. ) ;
#812 = CARTESIAN_POINT ( 'NONE',  ( -51.83200000000000074, 45.50000000000000711, 0.000000000000000000 ) ) ;
#813 = EDGE_CURVE ( 'NONE', #675, #108, #68, .T. ) ;
#814 = CARTESIAN_POINT ( 'NONE',  ( -24.15379231771514057, 3.095991570197889065, -2.855082455496925853 ) ) ;
#815 = CARTESIAN_POINT ( 'NONE',  ( -19.33142231470479899, 4.796062123348801443, 4.920257635023508769 ) ) ;
#816 = ORIENTED_EDGE ( 'NONE', *, *, #259, .F. ) ;
#817 = CARTESIAN_POINT ( 'NONE',  ( -28.53200000000000358, 0.000000000000000000, -5.500000000000000000 ) ) ;
#818 = CARTESIAN_POINT ( 'NONE',  ( -28.53200000000000358, 0.000000000000000000, -4.000000000000000000 ) ) ;
#819 = CARTESIAN_POINT ( 'NONE',  ( -29.66346464825889484, 4.804686381941877471, 4.989621328955393231 ) ) ;
#820 = ORIENTED_EDGE ( 'NONE', *, *, #731, .T. ) ;
#821 = LINE ( 'NONE', #176, #416 ) ;
#822 = CARTESIAN_POINT ( 'NONE',  ( -30.03199999999999292, 4.705281524299764762, -4.098879805448703451 ) ) ;
#823 = EDGE_CURVE ( 'NONE', #411, #749, #828, .T. ) ;
#824 = CARTESIAN_POINT ( 'NONE',  ( -28.53200000000000358, 4.870577163833599954, 5.500000000000000888 ) ) ;
#825 = VECTOR ( 'NONE', #719, 1000.000000000000000 ) ;
#826 = ORIENTED_EDGE ( 'NONE', *, *, #927, .F. ) ;
#827 = CARTESIAN_POINT ( 'NONE',  ( -20.53200000000000003, 4.200000000000172484, 4.000000000000000000 ) ) ;
#828 = CIRCLE ( 'NONE', #246, 42.50000000000000000 ) ;
#829 = CARTESIAN_POINT ( 'NONE',  ( -20.53200000000000003, 0.000000000000000000, 4.000000000000000000 ) ) ;
#830 = EDGE_CURVE ( 'NONE', #675, #912, #401, .T. ) ;
#831 = EDGE_CURVE ( 'NONE', #749, #838, #243, .T. ) ;
#832 = CARTESIAN_POINT ( 'NONE',  ( -28.45552500036408361, 3.104712281062627977, -2.982927140915147213 ) ) ;
#833 = ORIENTED_EDGE ( 'NONE', *, *, #409, .F. ) ;
#834 = DIRECTION ( 'NONE',  ( 0.000000000000000000, -1.000000000000000000, 0.000000000000000000 ) ) ;
#835 = CARTESIAN_POINT ( 'NONE',  ( -27.03200000000000003, 0.000000000000000000, 2.500000000000000000 ) ) ;
#836 = CARTESIAN_POINT ( 'NONE',  ( -24.43281487852028633, 4.606265761121795421, -2.950000000000000622 ) ) ;
#837 = APPROVAL ( #785, 'UNSPECIFIED' ) ;
#838 = VERTEX_POINT ( 'NONE', #1054 ) ;
#839 = DIRECTION ( 'NONE',  ( 1.000000000000000000, 0.000000000000000000, 0.000000000000000000 ) ) ;
#840 = CARTESIAN_POINT ( 'NONE',  ( -19.03200000000000003, 4.695588473793671724, -4.000000000000000000 ) ) ;
#841 = CARTESIAN_POINT ( 'NONE',  ( -22.03200000000000358, 3.188654003919948021, -4.000000000000000000 ) ) ;
#842 = ORIENTED_EDGE ( 'NONE', *, *, #446, .F. ) ;
#843 = VECTOR ( 'NONE', #306, 1000.000000000000114 ) ;
#844 = LINE ( 'NONE', #580, #914 ) ;
#845 = ADVANCED_FACE ( 'NONE', ( #725 ), #7, .T. ) ;
#846 = APPLICATION_CONTEXT ( 'configuration controlled 3d designs of mechanical parts and assemblies' ) ;
#847 = DIRECTION ( 'NONE',  ( -1.000000000000000000, -0.000000000000000000, 0.000000000000000000 ) ) ;
#848 = DIRECTION ( 'NONE',  ( 0.000000000000000000, -1.000000000000000000, 0.000000000000000000 ) ) ;
#849 = DATE_TIME_ROLE ( 'classification_date' ) ;
#850 = ORIENTED_EDGE ( 'NONE', *, *, #831, .T. ) ;
#851 = FACE_OUTER_BOUND ( 'NONE', #270, .T. ) ;
#852 = B_SPLINE_CURVE_WITH_KNOTS ( 'NONE', 3,
 ( #553, #256, #340, #159, #832, #667, #399, #581, #417, #334, #808, #14, #910, #899 ),
 .UNSPECIFIED., .F., .F.,
 ( 4, 2, 2, 2, 2, 2, 4 ),
 ( 0.000000000000000000, 0.0002933110610308890939, 0.0005866221220617781878, 0.0008799331830926673901, 0.001173244244123556376, 0.001759866366185341936, 0.002346488488247127496 ),
 .UNSPECIFIED. ) ;
#853 = CARTESIAN_POINT ( 'NONE',  ( -20.53200000000000003, 3.073593128807151853, -2.500000000000000000 ) ) ;
#854 = DIRECTION ( 'NONE',  ( -0.9974586998307352070, -0.07124704998790712396, -0.000000000000000000 ) ) ;
#855 = CARTESIAN_POINT ( 'NONE',  ( -20.53200000000000003, 0.000000000000000000, -5.200000000000000178 ) ) ;
#856 = DIRECTION ( 'NONE',  ( 0.000000000000000000, -1.000000000000000000, 0.000000000000000000 ) ) ;
#857 = ORIENTED_EDGE ( 'NONE', *, *, #422, .T. ) ;
#858 = DIRECTION ( 'NONE',  ( 0.000000000000000000, 0.000000000000000000, 1.000000000000000000 ) ) ;
#859 = VERTEX_POINT ( 'NONE', #644 ) ;
#860 = CARTESIAN_POINT ( 'NONE',  ( -19.04176012396723294, 4.715252845029849205, -4.196868957151555612 ) ) ;
#861 = UNCERTAINTY_MEASURE_WITH_UNIT (LENGTH_MEASURE( 1.000000000000000082E-05 ), #358, 'distance_accuracy_value', 'NONE');
#862 = VECTOR ( 'NONE', #441, 1000.000000000000114 ) ;
#863 = AXIS2_PLACEMENT_3D ( 'NONE', #445, #600, #935 ) ;
#864 = EDGE_CURVE ( 'NONE', #380, #838, #321, .T. ) ;
#865 = FACE_OUTER_BOUND ( 'NONE', #297, .T. ) ;
#866 = CALENDAR_DATE ( 2025, 16, 11 ) ;
#867 = DIRECTION ( 'NONE',  ( -1.000000000000000000, 0.000000000000000000, 0.000000000000000000 ) ) ;
#868 = CARTESIAN_POINT ( 'NONE',  ( -22.03200000000000358, 0.000000000000000000, -2.500000000000000000 ) ) ;
#869 = CC_DESIGN_PERSON_AND_ORGANIZATION_ASSIGNMENT ( #290, #375, ( #957 ) ) ;
#870 = ORIENTED_EDGE ( 'NONE', *, *, #528, .T. ) ;
#871 = CARTESIAN_POINT ( 'NONE',  ( -24.72788504903956053, 3.024742496366187972, -1.449999999999814770 ) ) ;
#872 = CARTESIAN_POINT ( 'NONE',  ( -28.53200000000000358, 0.000000000000000000, -5.199999999999998401 ) ) ;
#873 = APPROVAL_DATE_TIME ( #642, #83 ) ;
#874 = ORIENTED_EDGE ( 'NONE', *, *, #383, .T. ) ;
#875 = DIRECTION ( 'NONE',  ( 1.000000000000000000, 0.000000000000000000, 0.000000000000000000 ) ) ;
#876 = CARTESIAN_POINT ( 'NONE',  ( -24.53199999999955594, 3.024742496366062294, -1.449999999996035127 ) ) ;
#877 = VECTOR ( 'NONE', #1055, 1000.000000000000114 ) ;
#878 = AXIS2_PLACEMENT_3D ( 'NONE', #419, #89, #745 ) ;
#879 = ADVANCED_FACE ( 'NONE', ( #976 ), #797, .F. ) ;
#880 = CARTESIAN_POINT ( 'NONE',  ( -24.53199999999955594, 4.525648266262820130, -1.449999999996023359 ) ) ;
#881 = EDGE_LOOP ( 'NONE', ( #588, #525, #801, #286 ) ) ;
#882 = LINE ( 'NONE', #897, #586 ) ;
#883 = CARTESIAN_POINT ( 'NONE',  ( -20.53200000000000003, 4.200000000000172484, -4.000000000000000000 ) ) ;
#884 = DIRECTION ( 'NONE',  ( 1.000000000000000000, -0.000000000000000000, -0.000000000000000000 ) ) ;
#885 = ORIENTED_EDGE ( 'NONE', *, *, #38, .T. ) ;
#886 = FACE_BOUND ( 'NONE', #253, .T. ) ;
#887 = DIRECTION ( 'NONE',  ( -0.000000000000000000, -1.000000000000000000, 0.000000000000000000 ) ) ;
#888 = PLANE ( 'NONE',  #213 ) ;
#889 = ORIENTED_EDGE ( 'NONE', *, *, #947, .F. ) ;
#890 = DIRECTION ( 'NONE',  ( 0.000000000000000000, 0.000000000000000000, -1.000000000000000000 ) ) ;
#891 = DIRECTION ( 'NONE',  ( 0.000000000000000000, 0.000000000000000000, -1.000000000000000000 ) ) ;
#892 = AXIS2_PLACEMENT_3D ( 'NONE', #183, #250, #915 ) ;
#893 = CARTESIAN_POINT ( 'NONE',  ( -19.53852993245353531, 4.821902855129379439, 5.128087961198594336 ) ) ;
#894 = APPROVAL_PERSON_ORGANIZATION ( #192, #900, #515 ) ;
#895 = ADVANCED_FACE ( 'NONE', ( #791 ), #626, .T. ) ;
#896 = ORIENTED_EDGE ( 'NONE', *, *, #277, .F. ) ;
#897 = CARTESIAN_POINT ( 'NONE',  ( -20.53200000000000003, 0.000000000000000000, -5.199999999999998401 ) ) ;
#898 = LINE ( 'NONE', #69, #933 ) ;
#899 = CARTESIAN_POINT ( 'NONE',  ( -27.03200000000000003, 3.188654003919948021, -4.000000000000000000 ) ) ;
#900 = APPROVAL ( #370, 'UNSPECIFIED' ) ;
#901 = ORIENTED_EDGE ( 'NONE', *, *, #639, .T. ) ;
#902 = CARTESIAN_POINT ( 'NONE',  ( -27.22869454478472662, 3.187729999938514691, 3.990259962759406420 ) ) ;
#903 = CARTESIAN_POINT ( 'NONE',  ( -19.03200000000000003, 4.200000000000172484, 4.000000000000000000 ) ) ;
#904 = PRODUCT_DEFINITION_SHAPE ( 'NONE', 'NONE',  #957 ) ;
#905 = CARTESIAN_POINT ( 'NONE',  ( -29.99321907552559452, 4.735468227474287417, 4.391612971009211108 ) ) ;
#906 = ORIENTED_EDGE ( 'NONE', *, *, #864, .F. ) ;
#907 = CARTESIAN_POINT ( 'NONE',  ( -27.94663022585462286, 3.160711740200355724, 3.692919741006523093 ) ) ;
#908 = EDGE_CURVE ( 'NONE', #630, #459, #254, .T. ) ;
#909 = LINE ( 'NONE', #326, #114 ) ;
#910 = CARTESIAN_POINT ( 'NONE',  ( -27.23037218435494111, 3.188654003919940472, -3.999999999999999112 ) ) ;
#911 = AXIS2_PLACEMENT_3D ( 'NONE', #73, #982, #640 ) ;
#912 = VERTEX_POINT ( 'NONE', #921 ) ;
#913 = CARTESIAN_POINT ( 'NONE',  ( -22.03200000000000358, 0.000000000000000000, 4.000000000000000888 ) ) ;
#914 = VECTOR ( 'NONE', #764, 1000.000000000000000 ) ;
#915 = DIRECTION ( 'NONE',  ( 0.000000000000000000, 0.000000000000000000, 1.000000000000000000 ) ) ;
#916 = PRODUCT_DEFINITION_FORMATION_WITH_SPECIFIED_SOURCE ( 'ANY', '', #923, .NOT_KNOWN. ) ;
#917 = CC_DESIGN_DATE_AND_TIME_ASSIGNMENT ( #932, #849, ( #164 ) ) ;
#918 = APPLICATION_CONTEXT ( 'configuration controlled 3d designs of mechanical parts and assemblies' ) ;
#919 = CARTESIAN_POINT ( 'NONE',  ( -21.83530545521527699, 3.187729999938515135, -3.990259962759405532 ) ) ;
#920 = ORIENTED_EDGE ( 'NONE', *, *, #765, .F. ) ;
#921 = CARTESIAN_POINT ( 'NONE',  ( -28.53200000000000358, 4.870577163833599954, -5.500000000000000000 ) ) ;
#922 = CARTESIAN_POINT ( 'NONE',  ( -24.53199999999999648, 3.102505970281686842, -2.949999999999999734 ) ) ;
#923 = PRODUCT ( 'EN02-PALM_TOP_CAP', 'EN02-PALM_TOP_CAP', '', ( #526 ) ) ;
#924 = LINE ( 'NONE', #106, #502 ) ;
#925 = ORIENTED_EDGE ( 'NONE', *, *, #478, .F. ) ;
#926 = DIRECTION ( 'NONE',  ( 0.000000000000000000, 0.000000000000000000, 1.000000000000000000 ) ) ;
#927 = EDGE_CURVE ( 'NONE', #67, #265, #104, .T. ) ;
#928 = ORIENTED_EDGE ( 'NONE', *, *, #307, .T. ) ;
#929 = DIRECTION ( 'NONE',  ( -0.000000000000000000, 1.000000000000000000, -0.000000000000000000 ) ) ;
#930 = CARTESIAN_POINT ( 'NONE',  ( -20.83292786377812078, 3.137778409511583266, -3.422197405685594607 ) ) ;
#931 = ORIENTED_EDGE ( 'NONE', *, *, #126, .T. ) ;
#932 = DATE_AND_TIME ( #57, #761 ) ;
#933 = VECTOR ( 'NONE', #403, 1000.000000000000000 ) ;
#934 = ORIENTED_EDGE ( 'NONE', *, *, #908, .F. ) ;
#935 = DIRECTION ( 'NONE',  ( 0.000000000000000000, 0.000000000000000000, -1.000000000000000000 ) ) ;
#936 = APPROVAL_PERSON_ORGANIZATION ( #605, #837, #781 ) ;
#937 = CARTESIAN_POINT ( 'NONE',  ( -21.93281865238837725, 3.188654003919947133, -4.000000000000000000 ) ) ;
#938 = ORIENTED_EDGE ( 'NONE', *, *, #343, .T. ) ;
#939 = ORIENTED_EDGE ( 'NONE', *, *, #830, .F. ) ;
#940 = LINE ( 'NONE', #50, #1056 ) ;
#941 = CARTESIAN_POINT ( 'NONE',  ( -20.57176366872022655, 3.098308325350208836, -2.894682599259111644 ) ) ;
#942 = VERTEX_POINT ( 'NONE', #412 ) ;
#943 = DIRECTION ( 'NONE',  ( 1.000000000000000000, 0.000000000000000000, 0.000000000000000000 ) ) ;
#944 = EDGE_LOOP ( 'NONE', ( #115, #695, #348, #609 ) ) ;
#945 = CYLINDRICAL_SURFACE ( 'NONE', #449, 0.7500000000000019984 ) ;
#946 = ADVANCED_FACE ( 'NONE', ( #669 ), #100, .F. ) ;
#947 = EDGE_CURVE ( 'NONE', #67, #257, #559, .T. ) ;
#948 = ORIENTED_EDGE ( 'NONE', *, *, #351, .F. ) ;
#949 = DATE_TIME_ROLE ( 'creation_date' ) ;
#950 = ORIENTED_EDGE ( 'NONE', *, *, #235, .F. ) ;
#951 = CARTESIAN_POINT ( 'NONE',  ( -24.92381658176080350, 3.027367588476733040, -1.531226610851375680 ) ) ;
#952 = CIRCLE ( 'NONE', #738, 1.500000000000000444 ) ;
#953 = PERSON ( 'UNSPECIFIED', 'UNSPECIFIED', 'UNSPECIFIED', ('UNSPECIFIED'), ('UNSPECIFIED'), ('UNSPECIFIED') ) ;
#954 = DESIGN_CONTEXT ( 'detailed design', #918, 'design' ) ;
#955 = VECTOR ( 'NONE', #474, 1000.000000000000000 ) ;
#956 = AXIS2_PLACEMENT_3D ( 'NONE', #666, #929, #255 ) ;
#957 = PRODUCT_DEFINITION ( 'UNKNOWN', '', #916, #954 ) ;
#958 = CARTESIAN_POINT ( 'NONE',  ( -19.03200000000000003, 4.200000000000172484, -4.000000000000000000 ) ) ;
#959 = ORIENTED_EDGE ( 'NONE', *, *, #59, .F. ) ;
#960 = CARTESIAN_POINT ( 'NONE',  ( -25.18717016819932653, 3.038975490468813323, -1.821988042880477332 ) ) ;
#961 = CARTESIAN_POINT ( 'NONE',  ( -21.10855059208333273, 3.160972687548123883, 3.698115006886199208 ) ) ;
#962 = ORIENTED_EDGE ( 'NONE', *, *, #110, .F. ) ;
#963 = DIRECTION ( 'NONE',  ( 0.000000000000000000, 0.000000000000000000, 1.000000000000000000 ) ) ;
#964 = ADVANCED_FACE ( 'NONE', ( #424 ), #810, .T. ) ;
#965 = DIRECTION ( 'NONE',  ( -0.000000000000000000, 1.000000000000000000, -0.000000000000000000 ) ) ;
#966 = ADVANCED_FACE ( 'NONE', ( #1013 ), #594, .F. ) ;
#967 = DIRECTION ( 'NONE',  ( -0.000000000000000000, 1.000000000000000000, -0.000000000000000000 ) ) ;
#968 = B_SPLINE_CURVE_WITH_KNOTS ( 'NONE', 3,
 ( #700, #871, #951, #123, #960, #542, #1037, #141, #440, #129, #612, #215, #291, #205 ),
 .UNSPECIFIED., .F., .F.,
 ( 4, 2, 2, 2, 2, 2, 4 ),
 ( 0.002346490926063187626, 0.002932983221556094335, 0.003226229369302544437, 0.003519475517048994539, 0.003812721664795444641, 0.004105967812541894309, 0.004692460108034794512 ),
 .UNSPECIFIED. ) ;
#969 = EDGE_LOOP ( 'NONE', ( #554, #928, #570, #489 ) ) ;
#970 = DIRECTION ( 'NONE',  ( 1.000000000000000000, 0.000000000000000000, 0.000000000000000000 ) ) ;
#971 = DIRECTION ( 'NONE',  ( 0.000000000000000000, 1.000000000000000000, 0.000000000000000000 ) ) ;
#972 = AXIS2_PLACEMENT_3D ( 'NONE', #679, #847, #684 ) ;
#973 = AXIS2_PLACEMENT_3D ( 'NONE', #829, #658, #590 ) ;
#974 = DIRECTION ( 'NONE',  ( -0.000000000000000000, 1.000000000000000000, -0.000000000000000000 ) ) ;
#975 = ORIENTED_EDGE ( 'NONE', *, *, #17, .F. ) ;
#976 = FACE_OUTER_BOUND ( 'NONE', #181, .T. ) ;
#977 = CARTESIAN_POINT ( 'NONE',  ( -24.43403569303896461, 3.024742496366199962, -1.450000000000086997 ) ) ;
#978 = LINE ( 'NONE', #788, #163 ) ;
#979 = SHAPE_DEFINITION_REPRESENTATION ( #904, #511 ) ;
#980 = ORIENTED_EDGE ( 'NONE', *, *, #184, .F. ) ;
#981 = DIRECTION ( 'NONE',  ( 0.000000000000000000, 0.000000000000000000, -1.000000000000000000 ) ) ;
#982 = DIRECTION ( 'NONE',  ( 0.000000000000000000, 1.000000000000000000, -0.000000000000000000 ) ) ;
#983 = EDGE_CURVE ( 'NONE', #859, #203, #821, .T. ) ;
#984 = CARTESIAN_POINT ( 'NONE',  ( -20.43253956637604318, 4.870577163833600842, 5.500000000000003553 ) ) ;
#985 = EDGE_LOOP ( 'NONE', ( #166, #1021 ) ) ;
#986 = DIRECTION ( 'NONE',  ( 0.000000000000000000, 0.000000000000000000, -1.000000000000000000 ) ) ;
#987 = CARTESIAN_POINT ( 'NONE',  ( -28.53200000000000358, 4.200000000000172484, -5.500000000000000000 ) ) ;
#988 = VECTOR ( 'NONE', #884, 1000.000000000000000 ) ;
#989 = VECTOR ( 'NONE', #19, 1000.000000000000000 ) ;
#990 = CARTESIAN_POINT ( 'NONE',  ( -20.53200000000000003, 4.870577163833599954, 5.500000000000000000 ) ) ;
#991 = VECTOR ( 'NONE', #623, 1000.000000000000000 ) ;
#992 = ORIENTED_EDGE ( 'NONE', *, *, #153, .T. ) ;
#993 = CARTESIAN_POINT ( 'NONE',  ( -28.23107213622188993, 3.137778409511578381, 3.422197405685595051 ) ) ;
#994 = DIRECTION ( 'NONE',  ( 0.000000000000000000, 0.000000000000000000, -1.000000000000000000 ) ) ;
#995 = CARTESIAN_POINT ( 'NONE',  ( -29.45637092798568801, 4.830522217410909036, 5.197409239745081067 ) ) ;
#996 = VERTEX_POINT ( 'NONE', #25 ) ;
#997 = DIRECTION ( 'NONE',  ( 0.000000000000000000, 0.000000000000000000, 1.000000000000000000 ) ) ;
#998 = CARTESIAN_POINT ( 'NONE',  ( -20.53200000000000003, 3.188654003919948021, -4.000000000000000000 ) ) ;
#999 = CARTESIAN_POINT ( 'NONE',  ( -20.33476623772710568, 4.869247898343346925, 5.490205654330025276 ) ) ;
#1000 = ORIENTED_EDGE ( 'NONE', *, *, #670, .T. ) ;
#1001 = CARTESIAN_POINT ( 'NONE',  ( -27.42052340008767075, 3.184149282594337382, 3.952106424521304895 ) ) ;
#1002 = DIRECTION ( 'NONE',  ( -0.000000000000000000, 1.000000000000000000, -0.000000000000000000 ) ) ;
#1003 = CARTESIAN_POINT ( 'NONE',  ( -25.26240665829824650, 4.548875623679249358, -2.003411258068668932 ) ) ;
#1004 = B_SPLINE_CURVE_WITH_KNOTS ( 'NONE', 3,
 ( #512, #495, #344, #429, #22, #671, #1014, #436, #596, #1009, #516, #333, #822, #194 ),
 .UNSPECIFIED., .F., .F.,
 ( 4, 2, 2, 2, 2, 2, 4 ),
 ( 0.004701555658095229843, 0.005289819424973650312, 0.005878083191852069914, 0.006172215075291278413, 0.006466346958730485178, 0.006760478842169692811, 0.007054610725608900443 ),
 .UNSPECIFIED. ) ;
#1005 = CIRCLE ( 'NONE', #911, 1.500000000000000000 ) ;
#1006 = ORIENTED_EDGE ( 'NONE', *, *, #337, .T. ) ;
#1007 = FACE_OUTER_BOUND ( 'NONE', #274, .T. ) ;
#1008 = AXIS2_PLACEMENT_3D ( 'NONE', #827, #407, #926 ) ;
#1009 = CARTESIAN_POINT ( 'NONE',  ( -29.95560287539332123, 4.745688586769080786, -4.482680457774696592 ) ) ;
#1010 = ADVANCED_FACE ( 'NONE', ( #109 ), #535, .T. ) ;
#1011 = CARTESIAN_POINT ( 'NONE',  ( -24.53200000000000003, 81.49999999999998579, -2.199999999999997957 ) ) ;
#1012 = ORIENTED_EDGE ( 'NONE', *, *, #276, .T. ) ;
#1013 = FACE_OUTER_BOUND ( 'NONE', #682, .T. ) ;
#1014 = CARTESIAN_POINT ( 'NONE',  ( -29.72609928666352630, 4.795352028454692217, -4.913081557086150575 ) ) ;
#1015 = CARTESIAN_POINT ( 'NONE',  ( -28.53200000000000358, 0.000000000000000000, 2.500000000000000000 ) ) ;
#1016 = ORIENTED_EDGE ( 'NONE', *, *, #41, .T. ) ;
#1017 = PERSON_AND_ORGANIZATION ( #953, #97 ) ;
#1018 = CARTESIAN_POINT ( 'NONE',  ( -20.14139245076112417, 4.864046864550224392, -5.451576921243626472 ) ) ;
#1019 = B_SPLINE_CURVE_WITH_KNOTS ( 'NONE', 3,
 ( #840, #138, #860, #58, #460, #45, #134, #607, #770, #376, #279, #1041, #1018, #55, #453, #1033 ),
 .UNSPECIFIED., .F., .F.,
 ( 4, 2, 2, 2, 2, 2, 2, 4 ),
 ( 0.002349391426525555913, 0.002643411955471656680, 0.002937432484417757447, 0.003231453013363858214, 0.003525473542309958547, 0.004113514600202161815, 0.004407535129148268220, 0.004701555658094374625 ),
 .UNSPECIFIED. ) ;
#1020 = CYLINDRICAL_SURFACE ( 'NONE', #616, 0.7500000000000019984 ) ;
#1021 = ORIENTED_EDGE ( 'NONE', *, *, #201, .T. ) ;
#1022 = APPROVAL_DATE_TIME ( #1035, #900 ) ;
#1023 = CIRCLE ( 'NONE', #705, 1.500000000000000444 ) ;
#1024 = VERTEX_POINT ( 'NONE', #172 ) ;
#1025 = DIRECTION ( 'NONE',  ( 0.000000000000000000, 0.000000000000000000, -1.000000000000000000 ) ) ;
#1026 =( GEOMETRIC_REPRESENTATION_CONTEXT ( 3 ) GLOBAL_UNCERTAINTY_ASSIGNED_CONTEXT ( ( #861 ) ) GLOBAL_UNIT_ASSIGNED_CONTEXT ( ( #358, #1029, #435 ) ) REPRESENTATION_CONTEXT ( 'NONE', 'WORKASPACE' ) );
#1027 = FACE_BOUND ( 'NONE', #359, .T. ) ;
#1028 = ORIENTED_EDGE ( 'NONE', *, *, #409, .T. ) ;
#1029 =( NAMED_UNIT ( * ) PLANE_ANGLE_UNIT ( ) SI_UNIT ( $, .RADIAN. ) );
#1030 = ADVANCED_FACE ( 'NONE', ( #271 ), #756, .T. ) ;
#1031 = ADVANCED_FACE ( 'NONE', ( #751 ), #571, .F. ) ;
#1032 = EDGE_LOOP ( 'NONE', ( #708, #354, #962, #427 ) ) ;
#1033 = CARTESIAN_POINT ( 'NONE',  ( -20.53199999999959502, 4.870577163834533430, -5.500000000006902923 ) ) ;
#1034 = VERTEX_POINT ( 'NONE', #913 ) ;
#1035 = DATE_AND_TIME ( #866, #216 ) ;
#1036 = ORIENTED_EDGE ( 'NONE', *, *, #41, .F. ) ;
#1037 = CARTESIAN_POINT ( 'NONE',  ( -25.28195070376522580, 3.051836603668860892, -2.100767405335929094 ) ) ;
#1038 = ADVANCED_FACE ( 'NONE', ( #494 ), #182, .F. ) ;
#1039 = CARTESIAN_POINT ( 'NONE',  ( -19.03200000000000003, 0.000000000000000000, 4.000000000000000000 ) ) ;
#1040 = ORIENTED_EDGE ( 'NONE', *, *, #190, .T. ) ;
#1041 = CARTESIAN_POINT ( 'NONE',  ( -20.04768803301098501, 4.860221062895685229, -5.423082467723030931 ) ) ;
#1042 = AXIS2_PLACEMENT_3D ( 'NONE', #288, #220, #1025 ) ;
#1043 = ADVANCED_FACE ( 'NONE', ( #1007 ), #266, .T. ) ;
#1044 = CARTESIAN_POINT ( 'NONE',  ( -22.03200000000000358, 0.000000000000000000, 4.000000000000000000 ) ) ;
#1045 = ORIENTED_EDGE ( 'NONE', *, *, #592, .T. ) ;
#1046 = FACE_OUTER_BOUND ( 'NONE', #364, .T. ) ;
#1047 = FACE_OUTER_BOUND ( 'NONE', #103, .T. ) ;
#1048 = DIRECTION ( 'NONE',  ( 0.000000000000000000, 0.000000000000000000, 1.000000000000000000 ) ) ;
#1049 = ORIENTED_EDGE ( 'NONE', *, *, #448, .T. ) ;
#1050 = CARTESIAN_POINT ( 'NONE',  ( -28.53200000000000358, 4.200000000000172484, -5.500000000000000000 ) ) ;
#1051 = DIRECTION ( 'NONE',  ( 0.000000000000000000, 0.000000000000000000, 1.000000000000000000 ) ) ;
#1052 = CARTESIAN_POINT ( 'NONE',  ( -30.03200000000000358, 0.000000000000000000, -4.000000000000000000 ) ) ;
#1053 = ORIENTED_EDGE ( 'NONE', *, *, #983, .T. ) ;
#1054 = CARTESIAN_POINT ( 'NONE',  ( -20.53200000000000003, 0.000000000000000000, -2.500000000000000000 ) ) ;
#1055 = DIRECTION ( 'NONE',  ( 0.000000000000000000, 0.9974586998307350960, 0.07124704998790691579 ) ) ;
#1056 = VECTOR ( 'NONE', #457, 1000.000000000000000 ) ;
#1057 = CARTESIAN_POINT ( 'NONE',  ( -19.03200000000000003, 0.000000000000000000, -4.000000000000000000 ) ) ;
ENDSEC;
END-ISO-10303-21;
